<?xml version="1.0" encoding="UTF-8" standalone="no"?>
<!-- Created with Inkscape (http://www.inkscape.org/) -->
<svg height="1100.0000pt" id="svg1" inkscape:export-filename="/home/blender/vector/cobra7.png" inkscape:export-xdpi="300.03687" inkscape:export-ydpi="300.03687" inkscape:version="0.41" sodipodi:docbase="/home/blender/vector" sodipodi:docname="cobra8.svg" sodipodi:version="0.32" width="1100.0000pt" xmlns="http://www.w3.org/2000/svg" xmlns:cc="http://web.resource.org/cc/" xmlns:dc="http://purl.org/dc/elements/1.1/" xmlns:inkscape="http://www.inkscape.org/namespaces/inkscape" xmlns:rdf="http://www.w3.org/1999/02/22-rdf-syntax-ns#" xmlns:sodipodi="http://inkscape.sourceforge.net/DTD/sodipodi-0.dtd" xmlns:svg="http://www.w3.org/2000/svg">
  <metadata>
    <rdf:RDF xmlns:cc="http://web.resource.org/cc/" xmlns:dc="http://purl.org/dc/elements/1.1/" xmlns:rdf="http://www.w3.org/1999/02/22-rdf-syntax-ns#">
      <cc:Work rdf:about="">
        <dc:title>Shelby Cobra BluePrint</dc:title>
        <dc:description/>
        <dc:subject>
          <rdf:Bag>
            <rdf:li>shelby</rdf:li>
            <rdf:li>cobra</rdf:li>
            <rdf:li>blueprint</rdf:li>
            <rdf:li>transport</rdf:li>
            <rdf:li>car</rdf:li>
          </rdf:Bag>
        </dc:subject>
        <dc:publisher>
          <cc:Agent rdf:about="http://www.openclipart.org">
            <dc:title>Open Clip Art Library</dc:title>
          </cc:Agent>
        </dc:publisher>
        <dc:creator>
          <cc:Agent>
            <dc:title>Igor Krizanovskij</dc:title>
          </cc:Agent>
        </dc:creator>
        <dc:rights>
          <cc:Agent>
            <dc:title>Igor Krizanovskij</dc:title>
          </cc:Agent>
        </dc:rights>
        <dc:date/>
        <dc:format>image/svg+xml</dc:format>
        <dc:type rdf:resource="http://purl.org/dc/dcmitype/StillImage"/>
        <cc:license rdf:resource="http://web.resource.org/cc/PublicDomain"/>
        <dc:language>en</dc:language>
      </cc:Work>
      <cc:License rdf:about="http://web.resource.org/cc/PublicDomain">
        <cc:permits rdf:resource="http://web.resource.org/cc/Reproduction"/>
        <cc:permits rdf:resource="http://web.resource.org/cc/Distribution"/>
        <cc:permits rdf:resource="http://web.resource.org/cc/DerivativeWorks"/>
      </cc:License>
    </rdf:RDF>
  </metadata>
  <defs id="defs3"/>
  <sodipodi:namedview bordercolor="#666666" borderopacity="1.0" id="base" inkscape:current-layer="svg1" inkscape:cx="686.10007" inkscape:cy="741.52701" inkscape:guide-bbox="true" inkscape:pageopacity="0.0" inkscape:pageshadow="2" inkscape:window-height="994" inkscape:window-width="1270" inkscape:window-x="0" inkscape:window-y="5" inkscape:zoom="0.64849685" pagecolor="#ffffff" showguides="true"/>
  <g id="layer1" inkscape:groupmode="layer" inkscape:label="Layer 1"/>
  <g id="layer2" inkscape:groupmode="layer" inkscape:label="one"/>
  <path d="M 633.76098,425.94809 L 429.72688,277.74822 L 437.67992,268.30010 L 636.97063,412.32321 L 633.76098,425.94809 z " id="path19900" sodipodi:nodetypes="ccccc" style="fill: none; fill-opacity: 0.75; fill-rule: evenodd; stroke: rgb(255, 0, 0); stroke-width: 0.8125; stroke-linecap: butt; stroke-linejoin: miter; stroke-miterlimit: 4; stroke-opacity: 1;"/>
  <path d="M 435.17174,214.81965 C 430.95286,218.19476 426.53991,223.08767 424.00612,228.72820 C 421.12474,236.00706 418.70236,238.55642 421.84658,249.85227 C 424.57691,258.66501 428.74379,260.75769 437.57607,268.32969 L 429.61506,277.65801 C 422.13965,271.67768 403.00307,261.64125 408.66986,231.16492 C 411.23158,215.13129 423.02448,204.38846 431.30459,202.16981 C 438.92062,200.12909 441.39543,204.32767 441.02166,207.69161 C 440.64789,211.05554 437.27432,212.71707 435.17174,214.81965 z " id="path19901" sodipodi:nodetypes="ccccccccc" style="fill: none; fill-opacity: 0.75; fill-rule: evenodd; stroke: rgb(255, 0, 0); stroke-width: 0.8125; stroke-linecap: butt; stroke-linejoin: miter; stroke-miterlimit: 4; stroke-opacity: 1;"/>
  <path d="M 806.81578,528.24870 A 19.440060,19.440060 0 1 1 808.70052,520.36959" id="path19902" sodipodi:cx="789.26648" sodipodi:cy="519.88580" sodipodi:end="6.3080737" sodipodi:open="true" sodipodi:rx="19.440060" sodipodi:ry="19.440060" sodipodi:start="0.44470191" sodipodi:type="arc" style="fill: none; stroke: rgb(255, 0, 0); stroke-width: 0.8125; stroke-miterlimit: 4; stroke-opacity: 1;" transform="matrix(-0.966365, 0.257177, -0.257177, -0.966365, 1283.3, 610.379)"/>
  <path d="M 806.81578,528.24870 A 19.440060,19.440060 0 1 1 808.70052,520.36959" id="path19903" sodipodi:cx="789.26648" sodipodi:cy="519.88580" sodipodi:end="6.3080737" sodipodi:open="true" sodipodi:rx="19.440060" sodipodi:ry="19.440060" sodipodi:start="0.44470191" sodipodi:type="arc" style="fill: none; stroke: rgb(255, 0, 0); stroke-width: 0.8125; stroke-miterlimit: 4; stroke-opacity: 1;" transform="matrix(1.44469, -0.36342, 0.36342, 1.44469, -942.301, -153.279)"/>
  <rect height="341.06332" id="rect19904" rx="3.3977060" ry="3.3977060" style="fill: none; stroke: rgb(255, 0, 0); stroke-width: 0.8125; stroke-miterlimit: 4; stroke-opacity: 1;" transform="scale(-1, -1)" width="6.7954121" x="-1172.8728" y="-481.88318"/>
  <path d="M 536.05343 262.24686 A 7.1718411 7.1718411 0 1 1  521.70975,262.24686 A 7.1718411 7.1718411 0 1 1  536.05343 262.24686 z" id="path19906" sodipodi:cx="528.88159" sodipodi:cy="262.24686" sodipodi:rx="7.1718411" sodipodi:ry="7.1718411" sodipodi:type="arc" style="fill: none; stroke: rgb(255, 0, 0); stroke-width: 0.8125; stroke-miterlimit: 4; stroke-opacity: 1;" transform="matrix(-1, 5.9089e-17, -5.9089e-17, -1, 1293.56, 688.997)"/>
  <path d="M 833.77049,407.72888 C 834.38187,414.45412 835.60465,420.56798 826.43386,420.56798 C 817.26308,420.56798 790.19205,422.40214 782.16113,422.35154 C 777.83914,422.45166 775.72543,416.89967 775.11405,409.56304 C 774.50266,402.22641 775.68886,393.05563 783.02548,393.66701 C 790.36211,394.27840 813.59476,393.66701 822.15416,393.66701 C 830.71356,393.66701 833.15910,393.05563 833.15910,397.94671 C 833.15910,402.83780 833.77049,407.72888 833.77049,407.72888 z " id="path19912" sodipodi:nodetypes="cccccccc" style="fill: none; fill-opacity: 0.75; fill-rule: evenodd; stroke: rgb(255, 0, 0); stroke-width: 0.6875; stroke-linecap: butt; stroke-linejoin: miter; stroke-miterlimit: 4; stroke-opacity: 1;"/>
  <path d="M 1091.0303,508.87713 C 1037.1770,519.88681 997.01044,519.93097 973.77779,519.93097 C 950.54514,519.93097 886.95981,514.07767 864.94993,509.79797" id="path19913" sodipodi:nodetypes="ccc" style="fill: none; fill-opacity: 0.75; fill-rule: evenodd; stroke: rgb(255, 0, 0); stroke-width: 0.8125; stroke-linecap: butt; stroke-linejoin: miter; stroke-miterlimit: 4; stroke-opacity: 1;"/>
  <path d="M 504.29219,508.03614 C 480.87447,514.12474 451.13397,522.78929 404.76690,522.78929 C 358.39982,522.78929 250.67834,501.47917 250.67834,501.47917" id="path19916" sodipodi:nodetypes="ccc" style="fill: none; fill-opacity: 0.75; fill-rule: evenodd; stroke: rgb(255, 0, 0); stroke-width: 0.8125; stroke-linecap: butt; stroke-linejoin: miter; stroke-miterlimit: 4; stroke-opacity: 1;"/>
  <path d="M 184.79332,480.32729 C 177.64092,476.47390 171.75752,471.04382 171.75752,465.21435 C 171.75752,456.13353 180.61528,449.96519 184.20888,448.42507" id="path19918" sodipodi:nodetypes="ccc" style="fill: none; fill-opacity: 1; fill-rule: evenodd; stroke: rgb(255, 0, 0); stroke-width: 0.8125; stroke-linecap: butt; stroke-linejoin: miter; stroke-miterlimit: 4; stroke-opacity: 1;"/>
  <path d="M 536.05343 262.24686 A 7.1718411 7.1718411 0 1 1  521.70975,262.24686 A 7.1718411 7.1718411 0 1 1  536.05343 262.24686 z" id="path19919" sodipodi:cx="528.88159" sodipodi:cy="262.24686" sodipodi:rx="7.1718411" sodipodi:ry="7.1718411" sodipodi:type="arc" style="fill: none; stroke: rgb(255, 0, 0); stroke-width: 3.00092; stroke-miterlimit: 4; stroke-opacity: 1;" transform="matrix(-0.27075, 1.59983e-17, -1.59983e-17, -0.27075, 733.753, 553.645)"/>
  <path d="M 536.05343 262.24686 A 7.1718411 7.1718411 0 1 1  521.70975,262.24686 A 7.1718411 7.1718411 0 1 1  536.05343 262.24686 z" id="path19920" sodipodi:cx="528.88159" sodipodi:cy="262.24686" sodipodi:rx="7.1718411" sodipodi:ry="7.1718411" sodipodi:type="arc" style="fill: none; stroke: rgb(255, 0, 0); stroke-width: 3.00092; stroke-miterlimit: 4; stroke-opacity: 1;" transform="matrix(-0.27075, 1.59983e-17, -1.59983e-17, -0.27075, 794.732, 544.45)"/>
  <path d="M 536.05343 262.24686 A 7.1718411 7.1718411 0 1 1  521.70975,262.24686 A 7.1718411 7.1718411 0 1 1  536.05343 262.24686 z" id="path19921" sodipodi:cx="528.88159" sodipodi:cy="262.24686" sodipodi:rx="7.1718411" sodipodi:ry="7.1718411" sodipodi:type="arc" style="fill: none; stroke: rgb(255, 0, 0); stroke-width: 3.00092; stroke-miterlimit: 4; stroke-opacity: 1;" transform="matrix(-0.27075, 1.59983e-17, -1.59983e-17, -0.27075, 656.076, 556.791)"/>
  <path d="M 536.05343 262.24686 A 7.1718411 7.1718411 0 1 1  521.70975,262.24686 A 7.1718411 7.1718411 0 1 1  536.05343 262.24686 z" id="path19922" sodipodi:cx="528.88159" sodipodi:cy="262.24686" sodipodi:rx="7.1718411" sodipodi:ry="7.1718411" sodipodi:type="arc" style="fill: none; stroke: rgb(255, 0, 0); stroke-width: 3.00092; stroke-miterlimit: 4; stroke-opacity: 1;" transform="matrix(-0.27075, 1.59983e-17, -1.59983e-17, -0.27075, 607.68, 552.435)"/>
  <path d="M 536.05343 262.24686 A 7.1718411 7.1718411 0 1 1  521.70975,262.24686 A 7.1718411 7.1718411 0 1 1  536.05343 262.24686 z" id="path19923" sodipodi:cx="528.88159" sodipodi:cy="262.24686" sodipodi:rx="7.1718411" sodipodi:ry="7.1718411" sodipodi:type="arc" style="fill: none; stroke: rgb(255, 0, 0); stroke-width: 3.00092; stroke-miterlimit: 4; stroke-opacity: 1;" transform="matrix(-0.27075, 1.59983e-17, -1.59983e-17, -0.27075, 582.755, 548.564)"/>
  <path d="M 536.05343 262.24686 A 7.1718411 7.1718411 0 1 1  521.70975,262.24686 A 7.1718411 7.1718411 0 1 1  536.05343 262.24686 z" id="path19924" sodipodi:cx="528.88159" sodipodi:cy="262.24686" sodipodi:rx="7.1718411" sodipodi:ry="7.1718411" sodipodi:type="arc" style="fill: none; stroke: rgb(255, 0, 0); stroke-width: 3.00092; stroke-miterlimit: 4; stroke-opacity: 1;" transform="matrix(-0.27075, 1.59983e-17, -1.59983e-17, -0.27075, 553.717, 540.578)"/>
  <path d="M 536.05343 262.24686 A 7.1718411 7.1718411 0 1 1  521.70975,262.24686 A 7.1718411 7.1718411 0 1 1  536.05343 262.24686 z" id="path19925" sodipodi:cx="528.88159" sodipodi:cy="262.24686" sodipodi:rx="7.1718411" sodipodi:ry="7.1718411" sodipodi:type="arc" style="fill: none; stroke: rgb(255, 0, 0); stroke-width: 3.00092; stroke-miterlimit: 4; stroke-opacity: 1;" transform="matrix(-0.27075, 1.59983e-17, -1.59983e-17, -0.27075, 525.405, 531.867)"/>
  <path d="M 536.05343 262.24686 A 7.1718411 7.1718411 0 1 1  521.70975,262.24686 A 7.1718411 7.1718411 0 1 1  536.05343 262.24686 z" id="path19926" sodipodi:cx="528.88159" sodipodi:cy="262.24686" sodipodi:rx="7.1718411" sodipodi:ry="7.1718411" sodipodi:type="arc" style="fill: none; stroke: rgb(255, 0, 0); stroke-width: 3.00092; stroke-miterlimit: 4; stroke-opacity: 1;" transform="matrix(-0.27075, 1.59983e-17, -1.59983e-17, -0.27075, 497.093, 515.896)"/>
  <path d="M 536.05343 262.24686 A 7.1718411 7.1718411 0 1 1  521.70975,262.24686 A 7.1718411 7.1718411 0 1 1  536.05343 262.24686 z" id="path19927" sodipodi:cx="528.88159" sodipodi:cy="262.24686" sodipodi:rx="7.1718411" sodipodi:ry="7.1718411" sodipodi:type="arc" style="fill: none; stroke: rgb(255, 0, 0); stroke-width: 3.00092; stroke-miterlimit: 4; stroke-opacity: 1;" transform="matrix(-0.27075, 1.59983e-17, -1.59983e-17, -0.27075, 488.381, 478.872)"/>
  <path d="M 536.05343 262.24686 A 7.1718411 7.1718411 0 1 1  521.70975,262.24686 A 7.1718411 7.1718411 0 1 1  536.05343 262.24686 z" id="path19928" sodipodi:cx="528.88159" sodipodi:cy="262.24686" sodipodi:rx="7.1718411" sodipodi:ry="7.1718411" sodipodi:type="arc" style="fill: none; stroke: rgb(255, 0, 0); stroke-width: 3.00092; stroke-miterlimit: 4; stroke-opacity: 1;" transform="matrix(-0.27075, 1.59983e-17, -1.59983e-17, -0.27075, 484.752, 422.007)"/>
  <path d="M 536.05343 262.24686 A 7.1718411 7.1718411 0 1 1  521.70975,262.24686 A 7.1718411 7.1718411 0 1 1  536.05343 262.24686 z" id="path19929" sodipodi:cx="528.88159" sodipodi:cy="262.24686" sodipodi:rx="7.1718411" sodipodi:ry="7.1718411" sodipodi:type="arc" style="fill: none; stroke: rgb(255, 0, 0); stroke-width: 3.00092; stroke-miterlimit: 4; stroke-opacity: 1;" transform="matrix(-0.27075, 1.59983e-17, -1.59983e-17, -0.27075, 631.882, 556.671)"/>
  <path d="M 1124.3875,498.44484 L 1124.2686,436.44392" id="path19930" style="fill: none; fill-opacity: 0.75; fill-rule: evenodd; stroke: rgb(255, 0, 0); stroke-width: 0.8125; stroke-linecap: butt; stroke-linejoin: miter; stroke-miterlimit: 4; stroke-opacity: 1;"/>
  <path d="M 1131.7523,496.61590 L 1131.6334,438.82154" id="path19931" sodipodi:nodetypes="cc" style="fill: none; fill-opacity: 0.75; fill-rule: evenodd; stroke: rgb(255, 0, 0); stroke-width: 0.8125; stroke-linecap: butt; stroke-linejoin: miter; stroke-miterlimit: 4; stroke-opacity: 1;"/>
  <path d="M 1165.6709,437.02455 L 1128.0280,437.10590" id="path19932" sodipodi:nodetypes="cc" style="fill: none; fill-opacity: 0.75; fill-rule: evenodd; stroke: rgb(255, 0, 0); stroke-width: 0.8125; stroke-linecap: butt; stroke-linejoin: miter; stroke-miterlimit: 4; stroke-opacity: 1;"/>
  <path d="M 1165.6709,428.48330 L 1145.1105,428.56465" id="path19933" sodipodi:nodetypes="cc" style="fill: none; fill-opacity: 0.75; fill-rule: evenodd; stroke: rgb(255, 0, 0); stroke-width: 0.8125; stroke-linecap: butt; stroke-linejoin: miter; stroke-miterlimit: 4; stroke-opacity: 1;"/>
  <path d="M 191.35532,429.19920 L 166.34482,429.28055" id="path19934" sodipodi:nodetypes="cc" style="fill: none; fill-opacity: 0.75; fill-rule: evenodd; stroke: rgb(255, 0, 0); stroke-width: 0.8125; stroke-linecap: butt; stroke-linejoin: miter; stroke-miterlimit: 4; stroke-opacity: 1;"/>
  <path d="M 191.49112,420.65795 L 166.17662,420.73930" id="path19935" sodipodi:nodetypes="cc" style="fill: none; fill-opacity: 0.75; fill-rule: evenodd; stroke: rgb(255, 0, 0); stroke-width: 0.8125; stroke-linecap: butt; stroke-linejoin: miter; stroke-miterlimit: 4; stroke-opacity: 1;"/>
  <path d="M 166.74612,429.68804 L 166.66482,420.70597" id="path19936" sodipodi:nodetypes="cc" style="fill: none; fill-opacity: 0.75; fill-rule: evenodd; stroke: rgb(255, 0, 0); stroke-width: 0.8125; stroke-linecap: butt; stroke-linejoin: miter; stroke-miterlimit: 4; stroke-opacity: 1;"/>
  <path d="M 536.05343 262.24686 A 7.1718411 7.1718411 0 1 1  521.70975,262.24686 A 7.1718411 7.1718411 0 1 1  536.05343 262.24686 z" id="path19938" sodipodi:cx="528.88159" sodipodi:cy="262.24686" sodipodi:rx="7.1718411" sodipodi:ry="7.1718411" sodipodi:type="arc" style="fill: none; stroke: rgb(255, 0, 0); stroke-width: 0.8125; stroke-miterlimit: 4; stroke-opacity: 1;" transform="matrix(-1, 5.9089e-17, 5.9089e-17, 1, 1293.56, -68.1617)"/>
  <path d="M 166.25862,310.14464 C 166.25862,351.82542 190.59262,415.06555 191.20402,422.40218 C 191.81542,429.73880 191.81542,438.90959 189.98122,441.96652 C 188.14712,445.02344 180.95732,448.08037 180.95732,464.58778 C 180.95732,481.09519 189.36992,489.04321 209.54562,494.54568 C 229.72132,500.04815 277.40942,504.93923 306.75592,506.16200 C 336.10242,507.38477 1038.5844,510.44170 1071.5993,510.44170 C 1104.6141,510.44170 1124.2684,498.21399 1124.2684,498.21399 C 1124.2684,498.21399 1141.9086,500.65953 1141.9086,468.86748 C 1141.9086,437.07543 1124.2684,435.85266 1124.2684,435.85266 C 1124.2684,435.85266 1159.6388,432.79573 1159.0274,402.22645 L 1159.0274,218.60879 C 1159.6388,188.03951 1124.2684,184.98258 1124.2684,184.98258 C 1124.2684,184.98258 1141.9086,183.75981 1141.9086,151.96776 C 1141.9086,120.17571 1124.2684,122.62125 1124.2684,122.62125 C 1124.2684,122.62125 1104.6141,110.39354 1071.5993,110.39354 C 1038.5844,110.39354 336.10242,113.45047 306.75592,114.67324 C 277.40942,115.89601 229.72132,120.78709 209.54562,126.28956 C 189.36992,131.79203 180.95732,139.74005 180.95732,156.24746 C 180.95732,172.75487 188.14712,175.81180 189.98122,178.86872 C 191.81542,181.92565 191.81542,191.09644 191.20402,198.43306 C 190.59262,205.76969 166.25862,269.00982 166.25862,310.14464 z " id="path19907" sodipodi:nodetypes="cccccccccccccccccccccc" style="fill: none; fill-opacity: 0.75; fill-rule: evenodd; stroke: rgb(255, 0, 0); stroke-width: 0.8125; stroke-linecap: butt; stroke-linejoin: miter; stroke-miterlimit: 4; stroke-opacity: 1;"/>
  <path d="M 189.43792,415.40527 C 189.43792,415.40527 254.78812,423.01356 276.18662,424.23633 C 297.58512,425.45911 300.66692,424.89083 300.66692,424.89083 C 300.66692,424.89083 325.09752,428.31311 325.09752,413.02847 C 325.09752,397.74383 325.09752,223.09141 325.09752,207.80677 C 325.09752,192.52213 300.66692,195.94441 300.66692,195.94441 C 300.66692,195.94441 297.58512,195.37613 276.18662,196.59891 C 254.78812,197.82168 189.43792,205.42997 189.43792,205.42997" id="path19908" sodipodi:nodetypes="cccccccc" style="fill: none; fill-opacity: 0.75; fill-rule: evenodd; stroke: rgb(255, 0, 0); stroke-width: 0.8125; stroke-linecap: butt; stroke-linejoin: miter; stroke-miterlimit: 4; stroke-opacity: 1;"/>
  <path d="M 1124.5677,436.28617 C 1101.3351,432.61785 1055.7032,426.07049 1008.6266,429.73880 C 961.54988,433.40712 869.77085,441.79452 844.16384,443.80067 C 819.16498,445.09139 797.08715,444.41206 781.19113,444.41206 C 765.29510,444.41206 754.59585,439.52097 754.59585,417.81679 C 754.59585,396.11260 754.59585,224.72264 754.59585,203.01845 C 754.59585,181.31427 765.29510,176.42318 781.19113,176.42318 C 797.08715,176.42318 819.16498,175.74385 844.16384,177.03457 C 869.77085,179.04072 961.54988,187.42812 1008.6266,191.09644 C 1055.7032,194.76475 1101.3351,188.21739 1124.5677,184.54907" id="path19909" sodipodi:nodetypes="cccccccccc" style="fill: none; fill-opacity: 0.75; fill-rule: evenodd; stroke: rgb(255, 0, 0); stroke-width: 0.8125; stroke-linecap: butt; stroke-linejoin: miter; stroke-miterlimit: 4; stroke-opacity: 1;"/>
  <path d="M 1018.6013,429.41695 C 1031.4404,429.41695 1037.9731,416.28832 1039.8072,405.89477 C 1041.6414,395.50121 1044.6983,310.51861 1044.6983,310.41762 C 1044.6983,310.31663 1041.6414,225.33403 1039.8072,214.94047 C 1037.9731,204.54692 1031.4404,191.41829 1018.6013,191.41829" id="path19910" sodipodi:nodetypes="ccccc" style="fill: none; fill-opacity: 0.75; fill-rule: evenodd; stroke: rgb(255, 0, 0); stroke-width: 0.8125; stroke-linecap: butt; stroke-linejoin: miter; stroke-miterlimit: 4; stroke-opacity: 1;"/>
  <path d="M 754.61201,349.96914 C 754.61201,349.96914 753.99940,357.30577 765.90649,358.81808 C 772.02034,360.65223 783.63667,360.04085 806.86932,362.48639 C 830.10198,364.93193 879.62421,367.98886 879.62421,367.98886 C 879.62421,367.98886 893.41228,366.76609 893.41228,352.70422 C 893.41228,338.64235 893.41228,282.19289 893.41228,268.13102 C 893.41228,254.06915 879.62421,252.84638 879.62421,252.84638 C 879.62421,252.84638 830.10198,255.90331 806.86932,258.34885 C 783.63667,260.79439 772.02034,260.18301 765.90649,262.01716 C 753.99940,263.52947 754.61201,270.86610 754.61201,270.86610 L 754.61201,349.96914 z " id="path19911" sodipodi:nodetypes="ccccccccccc" style="fill: none; fill-opacity: 0.75; fill-rule: evenodd; stroke: rgb(255, 0, 0); stroke-width: 0.8125; stroke-linecap: butt; stroke-linejoin: miter; stroke-miterlimit: 4; stroke-opacity: 1;"/>
  <path d="M 833.77049,213.10628 C 834.38187,206.38104 835.60465,200.26718 826.43386,200.26718 C 817.26308,200.26718 790.19205,198.43302 782.16113,198.48362 C 777.83914,198.38350 775.72543,203.93549 775.11405,211.27212 C 774.50266,218.60875 775.68886,227.77953 783.02548,227.16815 C 790.36211,226.55676 813.59476,227.16815 822.15416,227.16815 C 830.71356,227.16815 833.15910,227.77953 833.15910,222.88845 C 833.15910,217.99736 833.77049,213.10628 833.77049,213.10628 z " id="path19944" sodipodi:nodetypes="cccccccc" style="fill: none; fill-opacity: 0.75; fill-rule: evenodd; stroke: rgb(255, 0, 0); stroke-width: 0.6875; stroke-linecap: butt; stroke-linejoin: miter; stroke-miterlimit: 4; stroke-opacity: 1;"/>
  <path d="M 1091.5959,111.91476 C 1036.4620,101.13173 997.01044,100.90419 973.77779,100.90419 C 950.54514,100.90419 886.95981,106.75749 864.94993,111.03719" id="path19945" sodipodi:nodetypes="ccc" style="fill: none; fill-opacity: 0.75; fill-rule: evenodd; stroke: rgb(255, 0, 0); stroke-width: 0.8125; stroke-linecap: butt; stroke-linejoin: miter; stroke-miterlimit: 4; stroke-opacity: 1;"/>
  <path d="M 723.96815,310.21887 C 721.93015,380.90698 716.44496,418.71052 711.92111,437.62716 C 708.16834,455.73768 705.07010,464.65134 702.89269,470.47739 C 699.90310,475.89416 700.33350,478.97316 689.02358,476.35677 C 677.71365,473.74038 644.61997,464.25970 636.77079,459.40068 C 628.92161,454.54167 627.42652,448.93511 631.53800,434.73183 C 635.64947,420.52855 645.84513,376.62061 646.48882,347.64330 C 646.48882,326.71215 646.48882,310.69060 646.48882,310.41762 C 646.48882,310.14464 646.48882,294.12309 646.48882,273.19194 C 645.84513,244.21463 635.64947,200.30669 631.53800,186.10341 C 627.42652,171.90013 628.92161,166.29357 636.77079,161.43456 C 644.61997,156.57554 677.71365,147.09486 689.02358,144.47847 C 700.33350,141.86208 699.90310,144.94108 702.89269,150.35785 C 705.07010,156.18390 708.16834,165.09756 711.92111,183.20808 C 716.44496,202.12472 721.93015,239.92826 723.96815,310.21887 z " id="path19914" sodipodi:nodetypes="ccccccccccccccc" style="fill: none; fill-opacity: 0.75; fill-rule: evenodd; stroke: rgb(255, 0, 0); stroke-width: 0.8125; stroke-linecap: butt; stroke-linejoin: miter; stroke-miterlimit: 4; stroke-opacity: 1;"/>
  <path d="M 711.89866,310.19522 C 711.89866,310.64002 711.15818,346.27788 708.84028,371.01896 C 706.50859,395.90730 703.27004,424.46906 694.92511,454.69478 C 693.53669,459.10466 692.43031,464.19215 685.70244,462.69707 C 677.55044,461.33840 651.56323,451.65528 647.80427,450.29218 C 643.58624,448.49152 638.86213,444.12306 642.30913,434.22439 C 643.42853,430.88064 656.32100,384.65731 656.85054,365.90614 C 659.70429,336.82025 659.70429,284.01499 656.85054,254.92910 C 656.32100,236.17793 643.42853,189.95460 642.30913,186.61085 C 638.86213,176.71218 643.58624,172.34372 647.80427,170.54306 C 651.56323,169.17996 677.55044,159.49684 685.70244,158.13817 C 692.43031,156.64309 693.53669,161.73058 694.92511,166.14046 C 703.27004,196.36618 706.50859,224.92794 708.84028,249.81628 C 711.15818,274.55736 711.89866,310.19522 711.89866,310.19522 z " id="path19915" sodipodi:nodetypes="cccccccccccccc" style="fill: none; fill-opacity: 0.75; fill-rule: evenodd; stroke: rgb(255, 0, 0); stroke-width: 0.8125; stroke-linecap: butt; stroke-linejoin: miter; stroke-miterlimit: 4; stroke-opacity: 1;"/>
  <path d="M 504.29219,112.79902 C 480.87447,106.71042 451.13397,98.045872 404.76690,98.045872 C 358.39982,98.045872 250.67834,119.35599 250.67834,119.35599" id="path19948" sodipodi:nodetypes="ccc" style="fill: none; fill-opacity: 0.75; fill-rule: evenodd; stroke: rgb(255, 0, 0); stroke-width: 0.8125; stroke-linecap: butt; stroke-linejoin: miter; stroke-miterlimit: 4; stroke-opacity: 1;"/>
  <path d="M 443.47382,310.14464 C 443.47382,310.69060 443.47382,327.76817 443.47382,354.34415 C 443.47382,380.92014 444.65192,412.61261 448.77582,441.93783 C 452.89972,471.26306 499.37502,476.22711 534.19872,476.68532 C 567.64782,477.60173 608.01029,467.52119 638.25192,445.98548 C 668.49356,424.44976 667.57715,353.79813 667.57715,310.41762 C 667.57715,267.03711 668.49356,196.38548 638.25192,174.84976 C 608.01029,153.31405 567.64782,143.23351 534.19872,144.14992 C 499.37502,144.60813 452.89972,149.57218 448.77582,178.89741 C 444.65192,208.22263 443.47382,239.91510 443.47382,266.49109 C 443.47382,293.06707 443.47382,310.14464 443.47382,310.14464 z " id="path19917" sodipodi:nodetypes="ccccccccccc" style="fill: none; fill-opacity: 0.75; fill-rule: evenodd; stroke: rgb(255, 0, 0); stroke-width: 0.8125; stroke-linecap: butt; stroke-linejoin: miter; stroke-miterlimit: 4; stroke-opacity: 1;"/>
  <path d="M 184.79332,140.50787 C 177.64092,144.36126 171.75752,149.79134 171.75752,155.62081 C 171.75752,164.70163 180.61528,170.86997 184.20888,172.41009" id="path19950" sodipodi:nodetypes="ccc" style="fill: none; fill-opacity: 1; fill-rule: evenodd; stroke: rgb(255, 0, 0); stroke-width: 0.8125; stroke-linecap: butt; stroke-linejoin: miter; stroke-miterlimit: 4; stroke-opacity: 1;"/>
  <path d="M 536.05343 262.24686 A 7.1718411 7.1718411 0 1 1  521.70975,262.24686 A 7.1718411 7.1718411 0 1 1  536.05343 262.24686 z" id="path19951" sodipodi:cx="528.88159" sodipodi:cy="262.24686" sodipodi:rx="7.1718411" sodipodi:ry="7.1718411" sodipodi:type="arc" style="fill: none; stroke: rgb(255, 0, 0); stroke-width: 3.00092; stroke-miterlimit: 4; stroke-opacity: 1;" transform="matrix(-0.27075, 1.59983e-17, 1.59983e-17, 0.27075, 733.753, 67.19)"/>
  <path d="M 536.05343 262.24686 A 7.1718411 7.1718411 0 1 1  521.70975,262.24686 A 7.1718411 7.1718411 0 1 1  536.05343 262.24686 z" id="path19952" sodipodi:cx="528.88159" sodipodi:cy="262.24686" sodipodi:rx="7.1718411" sodipodi:ry="7.1718411" sodipodi:type="arc" style="fill: none; stroke: rgb(255, 0, 0); stroke-width: 3.00092; stroke-miterlimit: 4; stroke-opacity: 1;" transform="matrix(-0.27075, 1.59983e-17, 1.59983e-17, 0.27075, 794.732, 76.3853)"/>
  <path d="M 536.05343 262.24686 A 7.1718411 7.1718411 0 1 1  521.70975,262.24686 A 7.1718411 7.1718411 0 1 1  536.05343 262.24686 z" id="path19953" sodipodi:cx="528.88159" sodipodi:cy="262.24686" sodipodi:rx="7.1718411" sodipodi:ry="7.1718411" sodipodi:type="arc" style="fill: none; stroke: rgb(255, 0, 0); stroke-width: 3.00092; stroke-miterlimit: 4; stroke-opacity: 1;" transform="matrix(-0.27075, 1.59983e-17, 1.59983e-17, 0.27075, 656.076, 64.0442)"/>
  <path d="M 536.05343 262.24686 A 7.1718411 7.1718411 0 1 1  521.70975,262.24686 A 7.1718411 7.1718411 0 1 1  536.05343 262.24686 z" id="path19954" sodipodi:cx="528.88159" sodipodi:cy="262.24686" sodipodi:rx="7.1718411" sodipodi:ry="7.1718411" sodipodi:type="arc" style="fill: none; stroke: rgb(255, 0, 0); stroke-width: 3.00092; stroke-miterlimit: 4; stroke-opacity: 1;" transform="matrix(-0.27075, 1.59983e-17, 1.59983e-17, 0.27075, 607.68, 68.3999)"/>
  <path d="M 536.05343 262.24686 A 7.1718411 7.1718411 0 1 1  521.70975,262.24686 A 7.1718411 7.1718411 0 1 1  536.05343 262.24686 z" id="path19955" sodipodi:cx="528.88159" sodipodi:cy="262.24686" sodipodi:rx="7.1718411" sodipodi:ry="7.1718411" sodipodi:type="arc" style="fill: none; stroke: rgb(255, 0, 0); stroke-width: 3.00092; stroke-miterlimit: 4; stroke-opacity: 1;" transform="matrix(-0.27075, 1.59983e-17, 1.59983e-17, 0.27075, 582.755, 72.2715)"/>
  <path d="M 536.05343 262.24686 A 7.1718411 7.1718411 0 1 1  521.70975,262.24686 A 7.1718411 7.1718411 0 1 1  536.05343 262.24686 z" id="path19956" sodipodi:cx="528.88159" sodipodi:cy="262.24686" sodipodi:rx="7.1718411" sodipodi:ry="7.1718411" sodipodi:type="arc" style="fill: none; stroke: rgb(255, 0, 0); stroke-width: 3.00092; stroke-miterlimit: 4; stroke-opacity: 1;" transform="matrix(-0.27075, 1.59983e-17, 1.59983e-17, 0.27075, 553.717, 80.2569)"/>
  <path d="M 536.05343 262.24686 A 7.1718411 7.1718411 0 1 1  521.70975,262.24686 A 7.1718411 7.1718411 0 1 1  536.05343 262.24686 z" id="path19957" sodipodi:cx="528.88159" sodipodi:cy="262.24686" sodipodi:rx="7.1718411" sodipodi:ry="7.1718411" sodipodi:type="arc" style="fill: none; stroke: rgb(255, 0, 0); stroke-width: 3.00092; stroke-miterlimit: 4; stroke-opacity: 1;" transform="matrix(-0.27075, 1.59983e-17, 1.59983e-17, 0.27075, 525.405, 88.9683)"/>
  <path d="M 536.05343 262.24686 A 7.1718411 7.1718411 0 1 1  521.70975,262.24686 A 7.1718411 7.1718411 0 1 1  536.05343 262.24686 z" id="path19958" sodipodi:cx="528.88159" sodipodi:cy="262.24686" sodipodi:rx="7.1718411" sodipodi:ry="7.1718411" sodipodi:type="arc" style="fill: none; stroke: rgb(255, 0, 0); stroke-width: 3.00092; stroke-miterlimit: 4; stroke-opacity: 1;" transform="matrix(-0.27075, 1.59983e-17, 1.59983e-17, 0.27075, 497.093, 104.939)"/>
  <path d="M 536.05343 262.24686 A 7.1718411 7.1718411 0 1 1  521.70975,262.24686 A 7.1718411 7.1718411 0 1 1  536.05343 262.24686 z" id="path19959" sodipodi:cx="528.88159" sodipodi:cy="262.24686" sodipodi:rx="7.1718411" sodipodi:ry="7.1718411" sodipodi:type="arc" style="fill: none; stroke: rgb(255, 0, 0); stroke-width: 3.00092; stroke-miterlimit: 4; stroke-opacity: 1;" transform="matrix(-0.27075, 1.59983e-17, 1.59983e-17, 0.27075, 488.382, 141.963)"/>
  <path d="M 536.05343 262.24686 A 7.1718411 7.1718411 0 1 1  521.70975,262.24686 A 7.1718411 7.1718411 0 1 1  536.05343 262.24686 z" id="path19960" sodipodi:cx="528.88159" sodipodi:cy="262.24686" sodipodi:rx="7.1718411" sodipodi:ry="7.1718411" sodipodi:type="arc" style="fill: none; stroke: rgb(255, 0, 0); stroke-width: 3.00092; stroke-miterlimit: 4; stroke-opacity: 1;" transform="matrix(-0.27075, 1.59983e-17, 1.59983e-17, 0.27075, 484.752, 198.829)"/>
  <path d="M 536.05343 262.24686 A 7.1718411 7.1718411 0 1 1  521.70975,262.24686 A 7.1718411 7.1718411 0 1 1  536.05343 262.24686 z" id="path19961" sodipodi:cx="528.88159" sodipodi:cy="262.24686" sodipodi:rx="7.1718411" sodipodi:ry="7.1718411" sodipodi:type="arc" style="fill: none; stroke: rgb(255, 0, 0); stroke-width: 3.00092; stroke-miterlimit: 4; stroke-opacity: 1;" transform="matrix(-0.27075, 1.59983e-17, 1.59983e-17, 0.27075, 631.882, 64.1645)"/>
  <path d="M 1124.3875,122.39032 L 1124.2686,184.39124" id="path19962" style="fill: none; fill-opacity: 0.75; fill-rule: evenodd; stroke: rgb(255, 0, 0); stroke-width: 0.8125; stroke-linecap: butt; stroke-linejoin: miter; stroke-miterlimit: 4; stroke-opacity: 1;"/>
  <path d="M 1131.7523,124.21926 L 1131.6334,182.01362" id="path19963" sodipodi:nodetypes="cc" style="fill: none; fill-opacity: 0.75; fill-rule: evenodd; stroke: rgb(255, 0, 0); stroke-width: 0.8125; stroke-linecap: butt; stroke-linejoin: miter; stroke-miterlimit: 4; stroke-opacity: 1;"/>
  <path d="M 1165.6709,183.81061 L 1128.0280,183.72926" id="path19964" sodipodi:nodetypes="cc" style="fill: none; fill-opacity: 0.75; fill-rule: evenodd; stroke: rgb(255, 0, 0); stroke-width: 0.8125; stroke-linecap: butt; stroke-linejoin: miter; stroke-miterlimit: 4; stroke-opacity: 1;"/>
  <path d="M 1165.6709,192.35186 L 1145.1105,192.27051" id="path19965" sodipodi:nodetypes="cc" style="fill: none; fill-opacity: 0.75; fill-rule: evenodd; stroke: rgb(255, 0, 0); stroke-width: 0.8125; stroke-linecap: butt; stroke-linejoin: miter; stroke-miterlimit: 4; stroke-opacity: 1;"/>
  <path d="M 191.35532,191.63604 L 166.34482,191.55469" id="path19966" sodipodi:nodetypes="cc" style="fill: none; fill-opacity: 0.75; fill-rule: evenodd; stroke: rgb(255, 0, 0); stroke-width: 0.8125; stroke-linecap: butt; stroke-linejoin: miter; stroke-miterlimit: 4; stroke-opacity: 1;"/>
  <path d="M 191.49112,200.17729 L 166.17662,200.09594" id="path19967" sodipodi:nodetypes="cc" style="fill: none; fill-opacity: 0.75; fill-rule: evenodd; stroke: rgb(255, 0, 0); stroke-width: 0.8125; stroke-linecap: butt; stroke-linejoin: miter; stroke-miterlimit: 4; stroke-opacity: 1;"/>
  <path d="M 166.74612,191.14720 L 166.66482,200.12927" id="path19968" sodipodi:nodetypes="cc" style="fill: none; fill-opacity: 0.75; fill-rule: evenodd; stroke: rgb(255, 0, 0); stroke-width: 0.8125; stroke-linecap: butt; stroke-linejoin: miter; stroke-miterlimit: 4; stroke-opacity: 1;"/>
  <g id="g1866" transform="translate(-15.6706, -30.9681)">
    <rect height="11.423629" id="rect21613" rx="6.1297517" ry="6.1297517" style="fill: none; stroke: rgb(255, 0, 0); stroke-width: 0.786376; stroke-miterlimit: 4; stroke-opacity: 1;" transform="translate(0, -505.03)" width="52.982193" x="367.20615" y="1650.6498"/>
    <path d="M 343.17447,1600.3321 C 341.03810,1588.5821 340.26135,1584.0681 337.14967,1570.2418 C 334.08625,1556.6300 327.44616,1541.5830 313.01597,1541.5830 C 300.94911,1541.5810 291.48992,1548.7096 291.48992,1559.7261 C 291.48992,1571.0388 291.06045,1601.5046 291.06045,1608.3072 M 278.29180,1614.3324 C 278.29180,1614.3324 278.54254,1573.9792 278.29180,1561.5377 C 278.29180,1545.7326 285.07940,1529.4851 313.36109,1529.4851 C 341.64277,1529.4851 347.29911,1557.3897 348.80747,1563.4232 C 350.31582,1569.4566 356.20050,1598.9760 356.20050,1598.9760" id="path21619" sodipodi:nodetypes="cccccccccc" style="fill: none; fill-opacity: 0.75; fill-rule: evenodd; stroke: rgb(255, 0, 0); stroke-width: 0.8125; stroke-linecap: butt; stroke-linejoin: miter; stroke-miterlimit: 4; stroke-opacity: 1;" transform="translate(0, -505.03)"/>
    <path d="M 340.86562,1543.7068 L 410.04582,1598.9064" id="path21620" sodipodi:nodetypes="cc" style="fill: none; fill-opacity: 0.75; fill-rule: evenodd; stroke: rgb(255, 0, 0); stroke-width: 0.8125; stroke-linecap: butt; stroke-linejoin: miter; stroke-miterlimit: 4; stroke-opacity: 1;" transform="translate(0, -505.03)"/>
    <path d="M 197.26656,1620.5891 C 197.26656,1653.7455 191.69406,1667.9245 205.06806,1701.3595 C 218.44206,1734.7945 240.45345,1757.5122 240.45345,1757.5122" id="path20987" sodipodi:nodetypes="ccc" style="fill: none; fill-opacity: 0.75; fill-rule: evenodd; stroke: rgb(255, 0, 0); stroke-width: 0.8125; stroke-linecap: butt; stroke-linejoin: miter; stroke-miterlimit: 4; stroke-opacity: 1;" transform="translate(0, -505.03)"/>
    <rect height="33.846947" id="rect21610" rx="6.1297517" ry="6.1297517" style="fill: none; stroke: rgb(255, 0, 0); stroke-width: 0.865727; stroke-miterlimit: 4; stroke-opacity: 1;" width="19.225130" x="224.29320" y="1157.2753"/>
    <path d="M 278.06250,1190.8424 C 276.01099,1190.8424 274.34375,1193.2868 274.34375,1196.3284 L 274.34375,1200.8908 C 271.05543,1200.9986 268.43750,1203.3762 268.43750,1206.3488 L 268.43750,1220.4838 C 268.43750,1223.4562 271.05542,1225.8339 274.34375,1225.9417 L 274.34375,1236.4940 C 274.34375,1239.5355 276.01098,1241.9799 278.06250,1241.9800 C 280.11401,1241.9800 281.75001,1239.5355 281.75000,1236.4940 L 281.75000,1225.9698 L 282.93750,1225.9698 C 286.33338,1225.9698 289.09375,1223.5253 289.09375,1220.4838 L 289.09375,1206.3488 C 289.09375,1203.3072 286.33339,1200.8628 282.93750,1200.8628 L 281.75000,1200.8628 L 281.75000,1196.3284 C 281.75000,1193.2868 280.11400,1190.8424 278.06250,1190.8424 z " id="rect21611" style="fill: none; stroke: rgb(255, 0, 0); stroke-width: 0.939989; stroke-miterlimit: 4; stroke-opacity: 1;"/>
    <path d="M 348.66599,1563.9559 L 393.47752,1598.9064" id="path21621" sodipodi:nodetypes="cc" style="fill: none; fill-opacity: 0.75; fill-rule: evenodd; stroke: rgb(255, 0, 0); stroke-width: 0.8125; stroke-linecap: butt; stroke-linejoin: miter; stroke-miterlimit: 4; stroke-opacity: 1;" transform="translate(0, -505.03)"/>
    <path d="M 235.30363,1753.7971 C 235.30363,1753.7971 235.30363,1809.2292 235.30363,1814.5085 C 235.30363,1819.7877 236.05781,1823.5586 230.77856,1823.5586 C 225.49931,1823.5586 198.15863,1822.8045 187.79040,1822.8045 C 182.13160,1822.8029 182.13406,1813.0001 182.13406,1813.0001 L 182.13406,1674.6815" id="path21623" sodipodi:nodetypes="cccccc" style="fill: none; fill-opacity: 0.75; fill-rule: evenodd; stroke: rgb(255, 0, 0); stroke-width: 0.8125; stroke-linecap: butt; stroke-linejoin: miter; stroke-miterlimit: 4; stroke-opacity: 1;" transform="translate(0, -505.03)"/>
    <path d="M 390.14123,1599.2406 C 288.29490,1599.2822 275.51783,1616.6272 275.51783,1616.6272 C 275.51783,1616.6272 273.38895,1615.4455 263.22422,1610.3631 C 248.60148,1603.0518 224.31505,1601.6142 210.28311,1609.8059 C 203.15073,1613.9698 197.57718,1620.7587 197.57718,1620.7587 C 197.57718,1620.7587 192.76703,1619.0827 187.01128,1620.8703 C 181.01499,1624.1694 181.21514,1627.5800 180.37926,1630.9235 C 180.37926,1630.9235 172.76999,1685.6496 202.91776,1720.2675 C 206.98839,1725.8259 234.64759,1757.7908 242.72772,1757.5122 L 541.29728,1757.4706 C 549.37741,1757.7492 577.03661,1725.7843 581.10724,1720.2259 C 611.25501,1685.6080 603.64574,1630.8819 603.64574,1630.8819 C 602.80986,1627.5384 603.01001,1624.1278 597.01372,1620.8287 C 591.25797,1619.0411 586.44782,1620.7171 586.44782,1620.7171 C 586.44782,1620.7171 580.87427,1613.9282 573.74189,1609.7643 C 559.70995,1601.5726 535.42352,1603.0102 520.80078,1610.3215 C 510.63605,1615.4039 508.50717,1616.5856 508.50717,1616.5856 C 508.50717,1616.5856 495.73010,1599.2406 390.14123,1599.2406 z " id="path20365" sodipodi:nodetypes="cccccccccccccccccc" style="fill: none; fill-opacity: 0.75; fill-rule: evenodd; stroke: rgb(255, 0, 0); stroke-width: 0.8125; stroke-linecap: butt; stroke-linejoin: miter; stroke-miterlimit: 4; stroke-opacity: 1;" transform="translate(0, -505.03)"/>
    <path d="M 197.26656,1620.4354 C 197.26656,1653.5918 191.69406,1667.9245 205.06806,1701.3595 C 218.44206,1734.7945 240.45345,1757.5122 240.45345,1757.5122" id="path1531" sodipodi:nodetypes="ccc" style="fill: none; fill-opacity: 0.75; fill-rule: evenodd; stroke: rgb(255, 0, 0); stroke-width: 0.8125; stroke-linecap: butt; stroke-linejoin: miter; stroke-miterlimit: 4; stroke-opacity: 1;" transform="matrix(-1, 0, 0, 1, 784.025, -505.072)"/>
    <path d="M 286.98384,1609.9147 C 286.98384,1609.9147 286.98384,1641.7337 286.98384,1653.7146 C 286.98384,1665.6955 286.98384,1705.8175 316.23947,1705.8175 C 345.49510,1705.8175 438.52990,1705.7759 467.78553,1705.7759 C 497.04116,1705.7759 497.04116,1665.6539 497.04116,1653.6730 C 497.04116,1641.6921 497.04116,1610.0268 497.04116,1610.0268" id="path21609" sodipodi:nodetypes="cccccc" style="fill: none; fill-opacity: 0.75; fill-rule: evenodd; stroke: rgb(255, 0, 0); stroke-width: 0.8125; stroke-linecap: butt; stroke-linejoin: miter; stroke-miterlimit: 4; stroke-opacity: 1;" transform="translate(0, -505.03)"/>
    <rect height="33.846947" id="rect1533" rx="6.1297517" ry="6.1297517" style="fill: none; stroke: rgb(255, 0, 0); stroke-width: 0.865727; stroke-miterlimit: 4; stroke-opacity: 1;" transform="scale(-1, 1)" width="19.225130" x="-559.73181" y="1157.2281"/>
    <path d="M 505.96250,1190.8051 C 508.01401,1190.8051 509.68125,1193.2495 509.68125,1196.2912 L 509.68125,1200.8536 C 512.96957,1200.9613 515.58750,1203.3390 515.58750,1206.3115 L 515.58750,1220.4465 C 515.58750,1223.4190 512.96958,1225.7966 509.68125,1225.9045 L 509.68125,1236.4567 C 509.68125,1239.4983 508.01402,1241.9427 505.96250,1241.9427 C 503.91099,1241.9427 502.27499,1239.4983 502.27500,1236.4567 L 502.27500,1225.9325 L 501.08750,1225.9325 C 497.69162,1225.9325 494.93125,1223.4880 494.93125,1220.4465 L 494.93125,1206.3115 C 494.93125,1203.2699 497.69161,1200.8255 501.08750,1200.8255 L 502.27500,1200.8255 L 502.27500,1196.2912 C 502.27500,1193.2495 503.91100,1190.8051 505.96250,1190.8051 z " id="path1534" style="fill: none; stroke: rgb(255, 0, 0); stroke-width: 0.939989; stroke-miterlimit: 4; stroke-opacity: 1;"/>
    <path d="M 256.04354,1606.7884 C 256.04354,1606.7884 283.48245,1587.4625 393.84970,1587.4417 C 504.21695,1587.4209 527.98146,1606.7468 527.98146,1606.7468" id="path21622" sodipodi:nodetypes="ccc" style="fill: none; fill-opacity: 0.75; fill-rule: evenodd; stroke: rgb(255, 0, 0); stroke-width: 0.8125; stroke-linecap: butt; stroke-linejoin: miter; stroke-miterlimit: 4; stroke-opacity: 1;" transform="translate(0, -505.03)"/>
    <path d="M 235.30363,1753.7971 C 235.30363,1753.7971 235.30363,1809.2292 235.30363,1814.5085 C 235.30363,1819.7877 236.05781,1823.5586 230.77856,1823.5586 C 225.49931,1823.5586 198.15863,1822.8045 187.79040,1822.8045 C 182.13160,1822.8029 182.13406,1813.0001 182.13406,1813.0001 L 182.13406,1674.9491" id="path1537" sodipodi:nodetypes="cccccc" style="fill: none; fill-opacity: 0.75; fill-rule: evenodd; stroke: rgb(255, 0, 0); stroke-width: 0.8125; stroke-linecap: butt; stroke-linejoin: miter; stroke-miterlimit: 4; stroke-opacity: 1;" transform="matrix(-1, 0, 0, 1, 784.025, -505.072)"/>
    <path d="M 390.52500,1524.7396 C 372.54608,1524.7812 333.86777,1524.7193 295.25000,1527.3438 C 276.30660,1528.6312 266.82748,1532.1426 261.65625,1537.0625 C 256.48502,1541.9824 254.48875,1549.3538 252.28125,1560.5625 L 252.28125,1560.5938 C 249.83258,1572.6046 245.60425,1600.8538 245.13892,1604.8091 L 235.34375,1604.0071 C 235.34375,1604.0071 240.17672,1571.4629 242.78125,1558.6875 C 245.03490,1547.2445 247.31159,1537.3772 255.00000,1530.0625 C 262.68841,1522.7478 274.69696,1519.0397 294.59375,1517.6875 C 333.65637,1515.0328 372.56340,1515.0938 392.01250,1515.0730 C 411.46160,1515.0522 450.36863,1514.9912 489.43125,1517.6459 C 509.32804,1518.9981 521.33659,1522.7062 529.02500,1530.0209 C 536.71341,1537.3356 538.99010,1547.2029 541.24375,1558.6459 C 543.84828,1571.4213 548.68125,1603.9655 548.68125,1603.9655 L 538.88608,1604.7675 C 538.42075,1600.8122 534.19242,1572.5630 531.74375,1560.5522 L 531.74375,1560.5209 C 529.53625,1549.3122 527.53998,1541.9408 522.36875,1537.0209 C 517.19752,1532.1010 507.71840,1528.5896 488.77500,1527.3022 C 450.15723,1524.6777 411.47892,1524.7396 390.52500,1524.7396 z " id="path21625" sodipodi:nodetypes="ccccccccccccccccccccc" style="fill: none; fill-opacity: 1; fill-rule: evenodd; stroke: rgb(255, 0, 0); stroke-width: 0.7; stroke-linecap: butt; stroke-linejoin: miter; stroke-miterlimit: 4; stroke-opacity: 1;" transform="translate(0, -505.03)"/>
  </g>
  <g id="g1795" transform="translate(-468.695, -426.889)">
    <path d="M 1556.0687,1233.4680 C 1565.2503,1233.7959 1572.4645,1233.1401 1574.1041,1225.9259 C 1575.7436,1218.7118 1577.7111,1200.6764 1578.6949,1191.4948 C 1579.6786,1182.3132 1584.9072,1178.0684 1586.8928,1176.0828 C 1590.6062,1172.9760 1604.2212,1170.4219 1608.2073,1160.0149 C 1611.7911,1151.5696 1611.8079,1136.0166 1608.4967,1128.9014 C 1605.9547,1123.0395 1601.5542,1116.9758 1588.5324,1111.8113 C 1572.7724,1105.5609 1536.9097,1095.4950 1466.8757,1090.8247 C 1409.3165,1086.5984 1326.5278,1091.4805 1277.0125,1095.4155 C 1227.4972,1099.3505 1186.5078,1105.5809 1186.5078,1105.5809" id="path1611" sodipodi:nodetypes="cccccccccc" style="fill: none; fill-opacity: 0.75; fill-rule: evenodd; stroke: rgb(255, 0, 0); stroke-width: 0.8125; stroke-linecap: butt; stroke-linejoin: miter; stroke-miterlimit: 4; stroke-opacity: 1;"/>
    <g id="g1612" transform="matrix(-1, 0, 0, 1, 1662.31, 880.249)">
      <path d="M 299.53209 344.93945 A 91.133102 91.133102 0 1 1  117.26588,344.93945 A 91.133102 91.133102 0 1 1  299.53209 344.93945 z" id="path1613" sodipodi:cx="208.39899" sodipodi:cy="344.93945" sodipodi:rx="91.133102" sodipodi:ry="91.133102" sodipodi:type="arc" style="fill: none; fill-opacity: 0.75; fill-rule: evenodd; stroke: rgb(255, 0, 0); stroke-width: 0.8125; stroke-linecap: butt; stroke-linejoin: miter; stroke-miterlimit: 4; stroke-opacity: 1;" transform="matrix(1.00715, 0, 0, 0.99846, -1.49114, 0.531107)"/>
      <path d="M 299.53209 344.93945 A 91.133102 91.133102 0 1 1  117.26588,344.93945 A 91.133102 91.133102 0 1 1  299.53209 344.93945 z" id="path1614" sodipodi:cx="208.39899" sodipodi:cy="344.93945" sodipodi:rx="91.133102" sodipodi:ry="91.133102" sodipodi:type="arc" style="fill: none; fill-opacity: 0.75; fill-rule: evenodd; stroke: rgb(255, 0, 0); stroke-width: 0.943436; stroke-linecap: butt; stroke-linejoin: miter; stroke-miterlimit: 4; stroke-opacity: 1;" transform="matrix(0.861214, 0, 0, 0.861214, 28.9229, 47.8728)"/>
      <path d="M 299.53209 344.93945 A 91.133102 91.133102 0 1 1  117.26588,344.93945 A 91.133102 91.133102 0 1 1  299.53209 344.93945 z" id="path1615" sodipodi:cx="208.39899" sodipodi:cy="344.93945" sodipodi:rx="91.133102" sodipodi:ry="91.133102" sodipodi:type="arc" style="fill: none; fill-opacity: 0.75; fill-rule: evenodd; stroke: rgb(255, 0, 0); stroke-width: 1.27815; stroke-linecap: butt; stroke-linejoin: miter; stroke-miterlimit: 4; stroke-opacity: 1;" transform="matrix(0.635686, 0, 0, 0.635686, 75.9226, 125.666)"/>
      <path d="M 299.53209 344.93945 A 91.133102 91.133102 0 1 1  117.26588,344.93945 A 91.133102 91.133102 0 1 1  299.53209 344.93945 z" id="path1616" sodipodi:cx="208.39899" sodipodi:cy="344.93945" sodipodi:rx="91.133102" sodipodi:ry="91.133102" sodipodi:type="arc" style="fill: none; fill-opacity: 0.75; fill-rule: evenodd; stroke: rgb(255, 0, 0); stroke-width: 1.48011; stroke-linecap: butt; stroke-linejoin: miter; stroke-miterlimit: 4; stroke-opacity: 1;" transform="matrix(0.548945, 0, 0, 0.548945, 93.9994, 155.587)"/>
      <path d="M 299.53209 344.93945 A 91.133102 91.133102 0 1 1  117.26588,344.93945 A 91.133102 91.133102 0 1 1  299.53209 344.93945 z" id="path1617" sodipodi:cx="208.39899" sodipodi:cy="344.93945" sodipodi:rx="91.133102" sodipodi:ry="91.133102" sodipodi:type="arc" style="fill: none; fill-opacity: 0.75; fill-rule: evenodd; stroke: rgb(255, 0, 0); stroke-width: 1.6741; stroke-linecap: butt; stroke-linejoin: miter; stroke-miterlimit: 4; stroke-opacity: 1;" transform="matrix(0.485335, 0, 0, 0.485335, 107.256, 177.528)"/>
      <path d="M 299.53209 344.93945 A 91.133102 91.133102 0 1 1  117.26588,344.93945 A 91.133102 91.133102 0 1 1  299.53209 344.93945 z" id="path1618" sodipodi:cx="208.39899" sodipodi:cy="344.93945" sodipodi:rx="91.133102" sodipodi:ry="91.133102" sodipodi:type="arc" style="fill: none; fill-opacity: 0.75; fill-rule: evenodd; stroke: rgb(255, 0, 0); stroke-width: 1.86275; stroke-linecap: butt; stroke-linejoin: miter; stroke-miterlimit: 4; stroke-opacity: 1;" transform="matrix(0.436182, 0, 0, 0.436182, 117.499, 194.483)"/>
      <path d="M 299.53209 344.93945 A 91.133102 91.133102 0 1 1  117.26588,344.93945 A 91.133102 91.133102 0 1 1  299.53209 344.93945 z" id="path1619" sodipodi:cx="208.39899" sodipodi:cy="344.93945" sodipodi:rx="91.133102" sodipodi:ry="91.133102" sodipodi:type="arc" style="fill: none; fill-opacity: 0.75; fill-rule: evenodd; stroke: rgb(255, 0, 0); stroke-width: 17.7224; stroke-linecap: butt; stroke-linejoin: miter; stroke-miterlimit: 4; stroke-opacity: 1;" transform="matrix(0.0458459, 0, 0, 0.0458459, 198.845, 329.126)"/>
    </g>
    <path d="M 1555.8012,1233.2397 C 1555.8012,1158.7065 1503.0936,1123.6524 1455.1598,1123.6524 C 1389.1838,1123.6524 1352.3147,1181.4299 1352.2819,1215.0684 C 1352.2819,1253.8877 1337.4457,1250.1901 1314.8209,1251.1315 C 1288.0996,1252.2434 969.07165,1257.0618 969.07165,1257.0618" id="path1620" sodipodi:nodetypes="ccccc" style="fill: none; fill-opacity: 0.75; fill-rule: evenodd; stroke: rgb(255, 0, 0); stroke-width: 0.8125; stroke-linecap: butt; stroke-linejoin: miter; stroke-miterlimit: 4; stroke-opacity: 1;"/>
    <path d="M 1370.6200,1165.8623 C 1362.8320,1160.3027 1351.3468,1158.8202 1345.0459,1163.6385 C 1338.7450,1168.4568 1317.7842,1195.3518 1300.9398,1208.8565 C 1286.4849,1221.4583 1252.7567,1234.8013 1244.9732,1236.2838 C 1237.1898,1237.7664 1234.5953,1242.2141 1240.8962,1244.0673 C 1251.7142,1246.5658 1263.1577,1252.1254 1263.1577,1252.1254" id="path1621" sodipodi:nodetypes="cccccc" style="fill: none; fill-opacity: 0.75; fill-rule: evenodd; stroke: rgb(255, 0, 0); stroke-width: 0.8125; stroke-linecap: butt; stroke-linejoin: miter; stroke-miterlimit: 4; stroke-opacity: 1;"/>
    <path d="M 1580.5589,1184.2587 C 1584.9702,1186.2280 1593.1084,1190.9495 1591.6546,1196.4524 C 1590.4013,1201.9676 1579.3356,1206.2298 1577.2875,1207.2539 C 1577.4450,1205.4421 1577.5559,1201.4188 1578.2746,1195.7434 C 1579.0467,1188.5101 1580.5589,1184.2587 1580.5589,1184.2587 z " id="path1622" sodipodi:nodetypes="ccccc" style="fill: none; fill-opacity: 0.75; fill-rule: evenodd; stroke: rgb(255, 0, 0); stroke-width: 0.8125; stroke-linecap: butt; stroke-linejoin: miter; stroke-miterlimit: 4; stroke-opacity: 1;"/>
    <path d="M 1380.4585,1089.5260 C 1380.4585,1089.5260 1305.7684,1079.6903 1251.0572,1080.6124 C 1196.3460,1081.5345 1136.1022,1082.4566 1136.1022,1082.4566 C 1136.1022,1082.4566 1134.2580,1101.2060 1124.7297,1104.8944 C 1115.2013,1108.5828 1069.4037,1123.0290 1026.3725,1123.0290 C 983.34117,1123.0290 948.60877,1123.0290 948.60877,1123.0290 C 948.60877,1123.0290 937.23622,1115.9596 930.78153,1112.5785 C 924.32683,1109.1975 912.64691,1098.7470 860.70201,1098.7470 C 808.75710,1098.7470 757.50297,1105.0958 722.69453,1114.4227 C 687.88610,1123.7496 656.25820,1142.1780 652.00030,1158.0687 C 647.74240,1173.9595 646.91260,1193.2541 654.45920,1206.3253 C 662.00590,1219.3964 673.09750,1234.8776 682.73690,1240.4429 C 692.37629,1246.0082 722.69453,1250.8934 734.98918,1250.8934 C 747.28383,1250.8934 751.89433,1251.8155 756.50482,1251.8155 C 761.11532,1251.8155 762.03742,1247.8197 762.03742,1241.0576 C 762.03742,1234.2956 766.34055,1181.7359 793.38878,1154.6877 C 820.43702,1127.6395 856.11226,1126.0482 866.84924,1126.7174 C 891.74878,1128.2548 919.98154,1136.5238 939.89763,1161.9590 C 960.29159,1188.0046 964.38598,1207.6529 965.51392,1235.5250 C 965.83552,1247.6416 963.56537,1249.0492 963.87273,1253.0449 C 964.18010,1257.0407 969.51865,1257.0795 969.51865,1257.0795" id="path1623" sodipodi:nodetypes="ccccccccccccccccccccc" style="fill: none; fill-opacity: 0.75; fill-rule: evenodd; stroke: rgb(255, 0, 0); stroke-width: 0.8125; stroke-linecap: butt; stroke-linejoin: miter; stroke-miterlimit: 4; stroke-opacity: 1;"/>
    <g id="g1624" transform="matrix(-1, 0, 0, 1, 1073.83, 880.249)">
      <path d="M 299.53209 344.93945 A 91.133102 91.133102 0 1 1  117.26588,344.93945 A 91.133102 91.133102 0 1 1  299.53209 344.93945 z" id="path1625" sodipodi:cx="208.39899" sodipodi:cy="344.93945" sodipodi:rx="91.133102" sodipodi:ry="91.133102" sodipodi:type="arc" style="fill: none; fill-opacity: 0.75; fill-rule: evenodd; stroke: rgb(255, 0, 0); stroke-width: 0.8125; stroke-linecap: butt; stroke-linejoin: miter; stroke-miterlimit: 4; stroke-opacity: 1;" transform="matrix(1.00715, 0, 0, 0.99846, -1.49114, 0.531107)"/>
      <path d="M 299.53209 344.93945 A 91.133102 91.133102 0 1 1  117.26588,344.93945 A 91.133102 91.133102 0 1 1  299.53209 344.93945 z" id="path1626" sodipodi:cx="208.39899" sodipodi:cy="344.93945" sodipodi:rx="91.133102" sodipodi:ry="91.133102" sodipodi:type="arc" style="fill: none; fill-opacity: 0.75; fill-rule: evenodd; stroke: rgb(255, 0, 0); stroke-width: 0.943436; stroke-linecap: butt; stroke-linejoin: miter; stroke-miterlimit: 4; stroke-opacity: 1;" transform="matrix(0.861214, 0, 0, 0.861214, 28.9229, 47.8728)"/>
      <path d="M 299.53209 344.93945 A 91.133102 91.133102 0 1 1  117.26588,344.93945 A 91.133102 91.133102 0 1 1  299.53209 344.93945 z" id="path1627" sodipodi:cx="208.39899" sodipodi:cy="344.93945" sodipodi:rx="91.133102" sodipodi:ry="91.133102" sodipodi:type="arc" style="fill: none; fill-opacity: 0.75; fill-rule: evenodd; stroke: rgb(255, 0, 0); stroke-width: 1.27815; stroke-linecap: butt; stroke-linejoin: miter; stroke-miterlimit: 4; stroke-opacity: 1;" transform="matrix(0.635686, 0, 0, 0.635686, 75.9226, 125.666)"/>
      <path d="M 299.53209 344.93945 A 91.133102 91.133102 0 1 1  117.26588,344.93945 A 91.133102 91.133102 0 1 1  299.53209 344.93945 z" id="path1628" sodipodi:cx="208.39899" sodipodi:cy="344.93945" sodipodi:rx="91.133102" sodipodi:ry="91.133102" sodipodi:type="arc" style="fill: none; fill-opacity: 0.75; fill-rule: evenodd; stroke: rgb(255, 0, 0); stroke-width: 1.48011; stroke-linecap: butt; stroke-linejoin: miter; stroke-miterlimit: 4; stroke-opacity: 1;" transform="matrix(0.548945, 0, 0, 0.548945, 93.9994, 155.587)"/>
      <path d="M 299.53209 344.93945 A 91.133102 91.133102 0 1 1  117.26588,344.93945 A 91.133102 91.133102 0 1 1  299.53209 344.93945 z" id="path1629" sodipodi:cx="208.39899" sodipodi:cy="344.93945" sodipodi:rx="91.133102" sodipodi:ry="91.133102" sodipodi:type="arc" style="fill: none; fill-opacity: 0.75; fill-rule: evenodd; stroke: rgb(255, 0, 0); stroke-width: 1.6741; stroke-linecap: butt; stroke-linejoin: miter; stroke-miterlimit: 4; stroke-opacity: 1;" transform="matrix(0.485335, 0, 0, 0.485335, 107.256, 177.528)"/>
      <path d="M 299.53209 344.93945 A 91.133102 91.133102 0 1 1  117.26588,344.93945 A 91.133102 91.133102 0 1 1  299.53209 344.93945 z" id="path1630" sodipodi:cx="208.39899" sodipodi:cy="344.93945" sodipodi:rx="91.133102" sodipodi:ry="91.133102" sodipodi:type="arc" style="fill: none; fill-opacity: 0.75; fill-rule: evenodd; stroke: rgb(255, 0, 0); stroke-width: 1.86275; stroke-linecap: butt; stroke-linejoin: miter; stroke-miterlimit: 4; stroke-opacity: 1;" transform="matrix(0.436182, 0, 0, 0.436182, 117.499, 194.483)"/>
      <path d="M 299.53209 344.93945 A 91.133102 91.133102 0 1 1  117.26588,344.93945 A 91.133102 91.133102 0 1 1  299.53209 344.93945 z" id="path1631" sodipodi:cx="208.39899" sodipodi:cy="344.93945" sodipodi:rx="91.133102" sodipodi:ry="91.133102" sodipodi:type="arc" style="fill: none; fill-opacity: 0.75; fill-rule: evenodd; stroke: rgb(255, 0, 0); stroke-width: 17.7224; stroke-linecap: butt; stroke-linejoin: miter; stroke-miterlimit: 4; stroke-opacity: 1;" transform="matrix(0.0458459, 0, 0, 0.0458459, 198.845, 329.126)"/>
    </g>
    <path d="M 919.36028,1106.1832 C 918.99357,1097.3821 912.51925,1097.1476 903.22507,1094.8152 C 892.34857,1093.4731 823.89911,1092.4042 804.97056,1093.7462 C 777.16902,1095.7314 736.87761,1101.9331 711.43609,1108.7501 C 685.99460,1115.5672 656.73720,1130.0785 643.22820,1143.5875 C 637.30520,1149.5105 632.59360,1162.6564 635.16060,1180.2585 C 637.72760,1197.8605 651.29580,1227.5639 660.09680,1233.0646 C 669.52280,1239.3465 670.84620,1240.1405 676.34680,1241.2406 C 681.84750,1242.3408 710.68993,1248.0187 710.68993,1248.0187" id="path1632" sodipodi:nodetypes="ccccccccc" style="fill: none; fill-opacity: 0.75; fill-rule: evenodd; stroke: rgb(255, 0, 0); stroke-width: 0.8125; stroke-linecap: butt; stroke-linejoin: miter; stroke-miterlimit: 4; stroke-opacity: 1;"/>
    <path d="M 1361.6665,1087.2436 L 1361.6665,1074.6629 C 1361.6665,1074.6629 1303.9242,1074.6629 1290.6984,1074.6629 C 1277.4725,1074.6629 1193.9236,1080.7920 1193.9236,1080.7920" id="path1633" style="fill: none; fill-opacity: 0.75; fill-rule: evenodd; stroke: rgb(255, 0, 0); stroke-width: 0.8125; stroke-linecap: butt; stroke-linejoin: miter; stroke-miterlimit: 4; stroke-opacity: 1;"/>
    <path d="M 1238.9950,1078.6669 C 1238.9950,1072.8604 1238.5207,1072.7464 1235.7787,1072.7464 C 1234.0331,1072.7464 1232.4770,1072.9060 1229.1875,1072.9812 C 1226.8070,1072.9396 1227.9560,1079.5016 1227.9560,1079.5016" id="path1634" sodipodi:nodetypes="cccc" style="fill: none; fill-opacity: 0.75; fill-rule: evenodd; stroke: rgb(255, 0, 0); stroke-width: 0.8125; stroke-linecap: butt; stroke-linejoin: miter; stroke-miterlimit: 4; stroke-opacity: 1;"/>
    <path d="M 536.05343 262.24686 A 7.1718411 7.1718411 0 1 1  521.70975,262.24686 A 7.1718411 7.1718411 0 1 1  536.05343 262.24686 z" id="path1635" sodipodi:cx="528.88159" sodipodi:cy="262.24686" sodipodi:rx="7.1718411" sodipodi:ry="7.1718411" sodipodi:type="arc" style="fill: none; stroke: rgb(255, 0, 0); stroke-width: 0.8125; stroke-miterlimit: 4; stroke-opacity: 1;" transform="matrix(-1, 0, 0, 1, 1662.31, 880.249)"/>
    <path d="M 1233.4986,1099.6315 L 1223.4914,1080.6178" id="path1636" style="fill: none; fill-opacity: 0.75; fill-rule: evenodd; stroke: rgb(255, 0, 0); stroke-width: 0.8125; stroke-linecap: butt; stroke-linejoin: miter; stroke-miterlimit: 4; stroke-opacity: 1;"/>
    <path d="M 1184.6354,1074.6135 C 1184.6354,1074.6135 1135.2665,1021.2417 1132.5979,1018.9066 C 1130.2628,1016.2380 1128.2614,1015.5709 1124.5921,1017.9059 C 1120.9228,1020.2409 1113.9177,1026.5788 1113.9177,1026.5788 C 1111.2491,1029.2474 1114.2513,1034.2510 1116.9199,1037.9204 C 1119.5885,1041.5897 1162.6195,1095.2951 1162.6195,1095.2951 L 1184.6354,1074.6135 z " id="path1637" style="fill: none; fill-opacity: 0.75; fill-rule: evenodd; stroke: rgb(255, 0, 0); stroke-width: 0.8125; stroke-linecap: butt; stroke-linejoin: miter; stroke-miterlimit: 4; stroke-opacity: 1;"/>
    <path d="M 1123.1161,1105.6559 C 1123.1161,1105.6559 1145.2737,1119.9796 1149.6101,1123.6489 C 1153.9466,1127.3182 1159.9509,1133.9897 1159.6174,1143.6633 C 1159.2838,1153.3370 1159.0098,1178.3174 1154.6137,1187.6951 C 1142.3962,1215.9050 1119.2549,1221.0525 1109.2477,1221.3861 C 1099.2405,1221.7196 1080.8173,1222.7569 1061.8802,1221.0525 C 1038.9872,1218.6652 1018.5007,1212.1845 1004.3286,1202.2668 C 988.59834,1191.2589 971.28065,1164.2049 967.56613,1153.0034 C 963.17128,1141.6948 961.50957,1128.7569 961.21117,1123.3856" id="path1638" sodipodi:nodetypes="ccccccccc" style="fill: none; fill-opacity: 0.75; fill-rule: evenodd; stroke: rgb(255, 0, 0); stroke-width: 0.8125; stroke-linecap: butt; stroke-linejoin: miter; stroke-miterlimit: 4; stroke-opacity: 1;"/>
    <path d="M 1089.5668,1114.3088 C 1090.3823,1112.4332 1105.9444,1076.7891 1108.5805,1070.2770 C 1110.9835,1064.3409 1104.0515,1060.8923 1100.7157,1070.2324 C 1097.3800,1079.5724 1081.8946,1116.3102 1081.8946,1116.3102" id="path1639" sodipodi:nodetypes="cccc" style="fill: none; fill-opacity: 0.75; fill-rule: evenodd; stroke: rgb(255, 0, 0); stroke-width: 0.8125; stroke-linecap: butt; stroke-linejoin: miter; stroke-miterlimit: 4; stroke-opacity: 1;"/>
    <path d="M 1631.6597,1211.7958 C 1631.6597,1211.7958 1638.4716,1159.6419 1641.4518,1145.5923 C 1644.4320,1131.5427 1635.9171,1130.6912 1633.7884,1143.4636 C 1631.6597,1156.2360 1625.9121,1192.6372 1624.6349,1205.6225 C 1623.3576,1218.6077 1630.3824,1218.8206 1631.6597,1211.7958 z " id="path1640" style="fill: none; fill-opacity: 0.75; fill-rule: evenodd; stroke: rgb(255, 0, 0); stroke-width: 0.8125; stroke-linecap: butt; stroke-linejoin: miter; stroke-miterlimit: 4; stroke-opacity: 1;"/>
    <path d="M 1610.3724,1134.7358 C 1614.4170,1135.5873 1622.0804,1136.0131 1625.6992,1139.8448 C 1628.8393,1143.4280 1629.1310,1146.9598 1627.6151,1152.6171 C 1625.4864,1157.7261 1621.8675,1171.3500 1621.6546,1177.7361 C 1621.4418,1184.1223 1621.0160,1193.9145 1620.8032,1197.9591 C 1620.5903,1202.0037 1618.8873,1208.8156 1607.3922,1214.7760 C 1595.8970,1220.7365 1595.8970,1220.7365 1595.8970,1220.7365 C 1595.8970,1220.7365 1584.8504,1230.5308 1580.8956,1231.4045 C 1575.9861,1232.4890 1565.2411,1233.2435 1565.2411,1233.2435" id="path1641" sodipodi:nodetypes="ccccccccc" style="fill: none; fill-opacity: 0.75; fill-rule: evenodd; stroke: rgb(255, 0, 0); stroke-width: 0.8125; stroke-linecap: butt; stroke-linejoin: miter; stroke-miterlimit: 4; stroke-opacity: 1;"/>
    <path d="M 1600.7931,1118.9832 L 1600.7931,1168.1862" id="path1642" sodipodi:nodetypes="cc" style="fill: none; fill-opacity: 0.75; fill-rule: evenodd; stroke: rgb(255, 0, 0); stroke-width: 0.8125; stroke-linecap: butt; stroke-linejoin: miter; stroke-miterlimit: 4; stroke-opacity: 1;"/>
    <path d="M 1592.8589,1113.7144 L 1592.9713,1172.6272" id="path1643" sodipodi:nodetypes="cc" style="fill: none; fill-opacity: 0.75; fill-rule: evenodd; stroke: rgb(255, 0, 0); stroke-width: 0.8125; stroke-linecap: butt; stroke-linejoin: miter; stroke-miterlimit: 4; stroke-opacity: 1;"/>
    <path d="M 69.396559 263.64038 A 4.0445848 4.0445848 0 1 1  61.307390,263.64038 A 4.0445848 4.0445848 0 1 1  69.396559 263.64038 z" id="path1644" sodipodi:cx="65.351974" sodipodi:cy="263.64038" sodipodi:rx="4.0445848" sodipodi:ry="4.0445848" sodipodi:type="arc" style="fill: none; stroke: rgb(255, 0, 0); stroke-width: 0.8125; stroke-miterlimit: 4; stroke-opacity: 1;" transform="matrix(-1, 0, 0, 1, 1662.31, 882.378)"/>
    <path d="M 1602.0703,1239.6822 C 1601.8575,1246.9198 1596.1099,1249.6872 1589.5108,1249.6872 C 1582.9118,1249.6872 1542.7059,1249.6872 1542.7059,1249.6872" id="path1645" sodipodi:nodetypes="ccc" style="fill: none; fill-opacity: 0.75; fill-rule: evenodd; stroke: rgb(255, 0, 0); stroke-width: 0.8125; stroke-linecap: butt; stroke-linejoin: miter; stroke-miterlimit: 4; stroke-opacity: 1;"/>
    <path d="M 1615.6942,1190.0828 C 1614.8427,1184.7610 1608.0308,1186.0382 1606.7535,1190.9343 C 1605.4763,1195.8303 1602.2832,1202.0037 1602.7090,1204.5581 C 1603.1347,1207.1126 1606.7535,1207.1126 1606.7535,1207.1126 C 1606.7535,1207.1126 1608.0308,1213.7117 1605.4763,1219.2464 C 1602.9218,1224.7811 1600.0272,1231.9276 1599.0901,1235.4247 C 1598.1531,1238.9218 1605.0325,1241.4373 1605.9021,1238.1920 C 1606.7716,1234.9468 1607.1793,1233.0831 1609.3080,1229.4642 C 1611.4367,1225.8454 1616.2264,1229.5707 1619.3130,1230.1029 C 1622.8254,1225.7390 1616.5457,1195.4046 1615.6942,1190.0828 z " id="path1646" sodipodi:nodetypes="cccccccccc" style="fill: none; fill-opacity: 0.75; fill-rule: evenodd; stroke: rgb(255, 0, 0); stroke-width: 0.8125; stroke-linecap: butt; stroke-linejoin: miter; stroke-miterlimit: 4; stroke-opacity: 1;"/>
    <path d="M 1291.8396,1093.4785 C 1291.8396,1091.1625 1291.2964,1087.6113 1289.3046,1087.7657 C 1287.3128,1087.9201 1287.4938,1094.4048 1287.4938,1094.4048" id="path1647" sodipodi:nodetypes="ccc" style="fill: none; fill-opacity: 0.75; fill-rule: evenodd; stroke: rgb(255, 0, 0); stroke-width: 0.750272; stroke-linecap: butt; stroke-linejoin: miter; stroke-miterlimit: 4; stroke-opacity: 1;"/>
    <path d="M 1248.0551,1097.9314 C 1248.0551,1095.2153 1247.3308,1086.1617 1245.3390,1086.3428 C 1243.3472,1086.5239 1243.7094,1099.0179 1243.7094,1099.0179" id="path1648" sodipodi:nodetypes="ccc" style="fill: none; fill-opacity: 0.75; fill-rule: evenodd; stroke: rgb(255, 0, 0); stroke-width: 0.8125; stroke-linecap: butt; stroke-linejoin: miter; stroke-miterlimit: 4; stroke-opacity: 1;"/>
    <path d="M 1255.8412,1097.0261 C 1255.8412,1094.3100 1255.1169,1085.2564 1253.1251,1085.4374 C 1251.1333,1085.6185 1251.4955,1098.1125 1251.4955,1098.1125" id="path1649" sodipodi:nodetypes="ccc" style="fill: none; fill-opacity: 0.75; fill-rule: evenodd; stroke: rgb(255, 0, 0); stroke-width: 0.8125; stroke-linecap: butt; stroke-linejoin: miter; stroke-miterlimit: 4; stroke-opacity: 1;"/>
    <path d="M 1264.8948,1096.0999 C 1264.8948,1093.6755 1264.1705,1085.5941 1262.1787,1085.7557 C 1260.1869,1085.9173 1260.5491,1097.0697 1260.5491,1097.0697" id="path1650" sodipodi:nodetypes="ccc" style="fill: none; fill-opacity: 0.75; fill-rule: evenodd; stroke: rgb(255, 0, 0); stroke-width: 0.767639; stroke-linecap: butt; stroke-linejoin: miter; stroke-miterlimit: 4; stroke-opacity: 1;"/>
    <path d="M 1273.7674,1095.3549 C 1273.7674,1093.2221 1273.0431,1086.1128 1271.0513,1086.2550 C 1269.0595,1086.3972 1269.4216,1096.2080 1269.4216,1096.2080" id="path1651" sodipodi:nodetypes="ccc" style="fill: none; fill-opacity: 0.75; fill-rule: evenodd; stroke: rgb(255, 0, 0); stroke-width: 0.719987; stroke-linecap: butt; stroke-linejoin: miter; stroke-miterlimit: 4; stroke-opacity: 1;"/>
    <path d="M 1282.2778,1094.7877 C 1282.2778,1092.9482 1281.5535,1086.8166 1279.5617,1086.9392 C 1277.5699,1087.0618 1277.9320,1095.5235 1277.9320,1095.5235" id="path1652" sodipodi:nodetypes="ccc" style="fill: none; fill-opacity: 0.75; fill-rule: evenodd; stroke: rgb(255, 0, 0); stroke-width: 0.668652; stroke-linecap: butt; stroke-linejoin: miter; stroke-miterlimit: 4; stroke-opacity: 1;"/>
    <path d="M 1193.8149,1080.7816 C 1194.1384,1078.0315 1193.3295,1077.3844 1191.8736,1075.9284 C 1190.4176,1074.4724 1187.1821,1073.9871 1187.1821,1073.9871 C 1187.1821,1073.9871 1135.4143,1017.8514 1133.9583,1016.3954 C 1132.5024,1014.9395 1132.1788,1011.7040 1130.5611,1010.5715 C 1128.4580,1008.6303 1126.6785,1008.4685 1122.6341,1011.2186 C 1118.5898,1013.9688 1104.6772,1024.6459 1102.2506,1026.5872 C 1099.8239,1028.5285 1094.0001,1033.3817 1101.2799,1041.9558 C 1108.5598,1050.5298 1150.9447,1103.5918 1150.9447,1103.5918 C 1150.9447,1103.5918 1149.8122,1104.8860 1148.8416,1106.8273 C 1147.8709,1108.7686 1147.8709,1111.3570 1147.8709,1111.3570 L 1168.0927,1111.3570 C 1168.0927,1111.3570 1176.6668,1098.9004 1180.2258,1094.8560 C 1183.7848,1090.8116 1192.6824,1083.2082 1192.6824,1083.2082 L 1193.8149,1080.7816 z " id="path1653" sodipodi:nodetypes="ccccccccccccccc" style="fill: none; fill-opacity: 0.75; fill-rule: evenodd; stroke: rgb(251, 0, 0); stroke-width: 0.8125; stroke-linecap: butt; stroke-linejoin: miter; stroke-miterlimit: 4; stroke-opacity: 1;"/>
    <path d="M 1141.9170,1057.4938 L 1141.8853,1078.6786 L 1141.8853,1078.6786 C 1141.8853,1078.6786 1147.3856,1078.6786 1152.2388,1078.5168 C 1157.0921,1078.3550 1165.9263,1074.2473 1166.0170,1067.9304 C 1165.7879,1061.2842 1157.0921,1057.3243 1151.1064,1057.3243 C 1144.3119,1057.1626 1141.9170,1057.4938 1141.9170,1057.4938 z " id="path1654" sodipodi:nodetypes="ccccccc" style="fill: none; fill-opacity: 0.75; fill-rule: evenodd; stroke: rgb(255, 0, 0); stroke-width: 0.8125; stroke-linecap: butt; stroke-linejoin: miter; stroke-miterlimit: 4; stroke-opacity: 1;"/>
    <path d="M 1150.7829,1057.3363 L 1150.7829,1078.3944" id="path1655" sodipodi:nodetypes="cc" style="fill: none; fill-opacity: 0.75; fill-rule: evenodd; stroke: rgb(255, 0, 0); stroke-width: 0.8125; stroke-linecap: butt; stroke-linejoin: miter; stroke-miterlimit: 4; stroke-opacity: 1;"/>
    <path d="M 1192.5207,1077.0608 C 1188.6381,1080.1345 1181.8436,1085.7966 1176.8285,1090.6499 C 1171.8135,1095.5031 1168.9016,1100.5181 1166.4750,1102.7829 C 1164.0484,1105.0478 1160.3276,1103.4300 1159.1951,1101.0034 C 1158.0627,1098.5768 1109.3686,1038.3967 1107.4273,1035.4848 C 1105.4860,1032.5729 1102.5741,1028.2050 1105.8096,1024.8077" id="path1656" sodipodi:nodetypes="cccccc" style="fill: none; fill-opacity: 0.75; fill-rule: evenodd; stroke: rgb(255, 0, 0); stroke-width: 0.8125; stroke-linecap: butt; stroke-linejoin: miter; stroke-miterlimit: 4; stroke-opacity: 1;"/>
    <path d="M 909.25376,1095.6649 C 909.25376,1095.6649 896.47359,1037.5879 894.69407,1028.8521 C 892.91455,1020.1162 879.32551,1021.0869 880.94325,1030.6316 C 882.56100,1040.1763 894.37052,1093.8853 894.37052,1093.8853" id="path1657" style="fill: none; fill-opacity: 0.75; fill-rule: evenodd; stroke: rgb(255, 0, 0); stroke-width: 0.8125; stroke-linecap: butt; stroke-linejoin: miter; stroke-miterlimit: 4; stroke-opacity: 1;"/>
    <path d="M 1038.4551,1122.4989 L 895.52344,1032.6036 L 898.11696,1044.7316 L 1023.0814,1123.1460 L 1038.4551,1122.4989 z " id="path1658" sodipodi:nodetypes="ccccc" style="fill: none; fill-opacity: 0.75; fill-rule: evenodd; stroke: rgb(255, 0, 0); stroke-width: 0.8125; stroke-linecap: butt; stroke-linejoin: miter; stroke-miterlimit: 4; stroke-opacity: 1;"/>
    <path d="M 878.35486,1093.4000 L 878.35486,1084.5024 C 878.35486,1084.5024 852.30919,1085.9584 846.64709,1087.0908 C 840.98499,1088.2232 840.82321,1092.2676 840.82321,1092.2676 C 840.82321,1092.2676 841.79386,1087.4144 840.17612,1084.6642 C 838.55837,1081.9140 834.67579,1076.5755 831.60208,1077.7079 C 828.52836,1078.8403 830.14611,1092.4294 830.14611,1092.4294" id="path1659" style="fill: none; fill-opacity: 0.75; fill-rule: evenodd; stroke: rgb(255, 0, 0); stroke-width: 0.8125; stroke-linecap: butt; stroke-linejoin: miter; stroke-miterlimit: 4; stroke-opacity: 1;"/>
    <path d="M 874.52301,1084.5339 C 874.52301,1084.5339 867.67100,1078.9934 857.17642,1079.3617 C 846.68184,1079.7299 838.94899,1082.4916 838.94899,1082.4916" id="path1660" sodipodi:nodetypes="ccc" style="fill: none; fill-opacity: 0.75; fill-rule: evenodd; stroke: rgb(255, 0, 0); stroke-width: 0.8125; stroke-linecap: butt; stroke-linejoin: miter; stroke-miterlimit: 4; stroke-opacity: 1;"/>
    <path d="M 1323.1575,1254.7294 C 1318.2183,1260.0801 1315.7487,1260.4917 1306.6936,1261.3149 C 1297.6385,1262.1381 999.03641,1262.2300 999.03641,1262.2300 L 999.03641,1272.4280 C 1006.3575,1273.0381 1285.7021,1272.8396 1298.8732,1272.8396 C 1312.0443,1272.8396 1322.7459,1271.1932 1328.0966,1264.6077 C 1333.4474,1258.0221 1327.0292,1251.5029 1323.1575,1254.7294 z " id="path1661" sodipodi:nodetypes="ccccccc" style="fill: none; fill-opacity: 0.75; fill-rule: evenodd; stroke: rgb(255, 0, 0); stroke-width: 0.8125; stroke-linecap: butt; stroke-linejoin: miter; stroke-miterlimit: 4; stroke-opacity: 1;"/>
    <rect height="18.521864" id="rect1662" style="fill: none; stroke: rgb(255, 0, 0); stroke-width: 0.8125; stroke-miterlimit: 4; stroke-opacity: 1;" transform="scale(-1, 1)" width="10.289925" x="-1038.3324" y="1257.6105"/>
    <path d="M 680.78143 387.23990 A 9.4667301 9.4667301 0 1 1  661.84797,387.23990 A 9.4667301 9.4667301 0 1 1  680.78143 387.23990 z" id="path1663" sodipodi:cx="671.31470" sodipodi:cy="387.23990" sodipodi:rx="9.4667301" sodipodi:ry="9.4667301" sodipodi:type="arc" style="fill: none; stroke: rgb(255, 0, 0); stroke-width: 0.8125; stroke-miterlimit: 4; stroke-opacity: 1;" transform="matrix(-1, 0, 0, 1, 1662.31, 880.249)"/>
    <path d="M 981.93562,1269.1353 L 945.72779,1269.1353" id="path1664" sodipodi:nodetypes="cc" style="fill: none; fill-opacity: 0.75; fill-rule: evenodd; stroke: rgb(255, 0, 0); stroke-width: 0.8125; stroke-linecap: butt; stroke-linejoin: miter; stroke-miterlimit: 4; stroke-opacity: 1;"/>
    <path d="M 1371.7259,1267.0773 L 1326.0386,1267.0773" id="path1665" style="fill: none; fill-opacity: 0.75; fill-rule: evenodd; stroke: rgb(255, 0, 0); stroke-width: 0.8125; stroke-linecap: butt; stroke-linejoin: miter; stroke-miterlimit: 4; stroke-opacity: 1;"/>
    <path d="M 652.34540,1216.5439 C 652.50170,1221.5437 655.78280,1228.5747 655.78280,1229.8247 C 655.78280,1231.0747 655.78280,1229.1997 655.78280,1232.1684 C 655.78280,1235.1370 655.47030,1242.3243 651.56420,1242.1681 C 647.65810,1242.0118 647.97060,1237.0120 646.40810,1234.6683 C 644.84570,1232.3246 640.93950,1230.7622 638.28340,1231.5434 C 635.62720,1232.3246 634.06480,1231.2309 634.22100,1226.6998 C 634.37720,1222.1687 636.87720,1223.2624 642.03330,1212.9502 C 647.18930,1202.6381 645.78310,1200.4506 648.75180,1200.4506 C 651.72040,1200.4506 655.47030,1206.3880 653.90790,1210.1378 C 652.34540,1213.8877 652.34540,1216.5439 652.34540,1216.5439 z " id="path1666" sodipodi:nodetypes="ccccccccccc" style="fill: none; fill-opacity: 0.75; fill-rule: evenodd; stroke: rgb(255, 0, 0); stroke-width: 0.8125; stroke-linecap: butt; stroke-linejoin: miter; stroke-miterlimit: 4; stroke-opacity: 1;"/>
    <path d="M 651.46880,1158.1846 C 651.46880,1158.1846 641.87700,1160.7644 641.09580,1166.3892 C 640.31460,1172.0140 641.25200,1184.5136 643.28320,1187.3261 C 645.31440,1190.1385 649.26230,1191.8190 649.26230,1191.8190 C 649.26230,1191.8190 648.40110,1179.6700 648.71360,1174.6702 C 649.02610,1169.6704 651.46880,1158.1846 651.46880,1158.1846 z " id="path1667" sodipodi:nodetypes="cccccc" style="fill: none; fill-opacity: 0.75; fill-rule: evenodd; stroke: rgb(255, 0, 0); stroke-width: 0.8125; stroke-linecap: butt; stroke-linejoin: miter; stroke-miterlimit: 4; stroke-opacity: 1;"/>
    <path d="M 637.97090,1197.0132 L 640.31460,1203.2631 C 640.31460,1203.2631 635.78350,1203.1068 633.90850,1203.2631 C 632.03360,1203.4193 632.34610,1201.7006 632.18980,1199.5132 C 632.03360,1197.3257 633.28350,1196.8570 634.84600,1197.0132 C 636.40840,1196.8952 637.97090,1197.0132 637.97090,1197.0132 z " id="path1668" sodipodi:nodetypes="cccccc" style="fill: none; fill-opacity: 0.75; fill-rule: evenodd; stroke: rgb(255, 0, 0); stroke-width: 0.8125; stroke-linecap: butt; stroke-linejoin: miter; stroke-miterlimit: 4; stroke-opacity: 1;"/>
    <path d="M 633.00920,1165.8251 L 634.02660,1159.4381 L 629.98680,1159.2401 C 629.98680,1159.2401 627.79590,1159.3165 627.81500,1162.1706 C 627.97120,1164.2018 627.34620,1165.9205 629.37740,1165.9205 C 631.40860,1165.9205 630.54030,1165.9622 633.00920,1165.8251 z " id="path1669" sodipodi:nodetypes="cccccc" style="fill: none; fill-opacity: 0.75; fill-rule: evenodd; stroke: rgb(255, 0, 0); stroke-width: 0.8125; stroke-linecap: butt; stroke-linejoin: miter; stroke-miterlimit: 4; stroke-opacity: 1;"/>
    <path d="M 688.14677,359.75585 A 111.03625,106.15553 0 1 1 906.67796,352.91385" id="path1670" sodipodi:cx="796.77661" sodipodi:cy="337.77502" sodipodi:end="6.4262830" sodipodi:open="true" sodipodi:rx="111.03625" sodipodi:ry="106.15553" sodipodi:start="2.9330213" sodipodi:type="arc" style="fill: none; stroke: rgb(255, 0, 0); stroke-width: 0.8125; stroke-miterlimit: 4; stroke-opacity: 1;" transform="matrix(-1, 0, 0, 0.979249, 1662.31, 887.723)"/>
    <path d="M 778.10636,1255.0474 L 720.90061,1249.4078" id="path1671" sodipodi:nodetypes="cc" style="fill: none; fill-opacity: 0.75; fill-rule: evenodd; stroke: rgb(255, 0, 0); stroke-width: 0.8125; stroke-linecap: butt; stroke-linejoin: miter; stroke-miterlimit: 4; stroke-opacity: 1;"/>
    <path d="M 536.05343 262.24686 A 7.1718411 7.1718411 0 1 1  521.70975,262.24686 A 7.1718411 7.1718411 0 1 1  536.05343 262.24686 z" id="path1672" sodipodi:cx="528.88159" sodipodi:cy="262.24686" sodipodi:rx="7.1718411" sodipodi:ry="7.1718411" sodipodi:type="arc" style="fill: none; stroke: rgb(255, 0, 0); stroke-width: 3.00092; stroke-miterlimit: 4; stroke-opacity: 1;" transform="matrix(-0.27075, 0, 0, 0.27075, 1493.58, 1094.48)"/>
    <path d="M 536.05343 262.24686 A 7.1718411 7.1718411 0 1 1  521.70975,262.24686 A 7.1718411 7.1718411 0 1 1  536.05343 262.24686 z" id="path1673" sodipodi:cx="528.88159" sodipodi:cy="262.24686" sodipodi:rx="7.1718411" sodipodi:ry="7.1718411" sodipodi:type="arc" style="fill: none; stroke: rgb(255, 0, 0); stroke-width: 3.00092; stroke-miterlimit: 4; stroke-opacity: 1;" transform="matrix(-0.27075, 0, 0, 0.27075, 1477.95, 1108.33)"/>
    <path d="M 536.05343 262.24686 A 7.1718411 7.1718411 0 1 1  521.70975,262.24686 A 7.1718411 7.1718411 0 1 1  536.05343 262.24686 z" id="path1674" sodipodi:cx="528.88159" sodipodi:cy="262.24686" sodipodi:rx="7.1718411" sodipodi:ry="7.1718411" sodipodi:type="arc" style="fill: none; stroke: rgb(255, 0, 0); stroke-width: 3.00092; stroke-miterlimit: 4; stroke-opacity: 1;" transform="matrix(-0.27075, 0, 0, 0.27075, 1465, 1124.18)"/>
    <path d="M 536.05343 262.24686 A 7.1718411 7.1718411 0 1 1  521.70975,262.24686 A 7.1718411 7.1718411 0 1 1  536.05343 262.24686 z" id="path1675" sodipodi:cx="528.88159" sodipodi:cy="262.24686" sodipodi:rx="7.1718411" sodipodi:ry="7.1718411" sodipodi:type="arc" style="fill: none; stroke: rgb(255, 0, 0); stroke-width: 3.00092; stroke-miterlimit: 4; stroke-opacity: 1;" transform="matrix(-0.27075, 0, 0, 0.27075, 1445.35, 1140.93)"/>
    <path d="M 536.05343 262.24686 A 7.1718411 7.1718411 0 1 1  521.70975,262.24686 A 7.1718411 7.1718411 0 1 1  536.05343 262.24686 z" id="path1676" sodipodi:cx="528.88159" sodipodi:cy="262.24686" sodipodi:rx="7.1718411" sodipodi:ry="7.1718411" sodipodi:type="arc" style="fill: none; stroke: rgb(255, 0, 0); stroke-width: 3.00092; stroke-miterlimit: 4; stroke-opacity: 1;" transform="matrix(-0.27075, 0, 0, 0.27075, 1426.82, 1153.88)"/>
    <path d="M 536.05343 262.24686 A 7.1718411 7.1718411 0 1 1  521.70975,262.24686 A 7.1718411 7.1718411 0 1 1  536.05343 262.24686 z" id="path1677" sodipodi:cx="528.88159" sodipodi:cy="262.24686" sodipodi:rx="7.1718411" sodipodi:ry="7.1718411" sodipodi:type="arc" style="fill: none; stroke: rgb(255, 0, 0); stroke-width: 3.00092; stroke-miterlimit: 4; stroke-opacity: 1;" transform="matrix(-0.27075, 0, 0, 0.27075, 1406.94, 1162.59)"/>
    <path d="M 536.05343 262.24686 A 7.1718411 7.1718411 0 1 1  521.70975,262.24686 A 7.1718411 7.1718411 0 1 1  536.05343 262.24686 z" id="path1678" sodipodi:cx="528.88159" sodipodi:cy="262.24686" sodipodi:rx="7.1718411" sodipodi:ry="7.1718411" sodipodi:type="arc" style="fill: none; stroke: rgb(255, 0, 0); stroke-width: 3.00092; stroke-miterlimit: 4; stroke-opacity: 1;" transform="matrix(-0.27075, 0, 0, 0.27075, 1413.64, 1177.33)"/>
    <path d="M 685.98080,330.79282 A 111.03625,106.15553 0 1 1 906.77547,352.25203" id="path1679" sodipodi:cx="796.77661" sodipodi:cy="337.77502" sodipodi:end="6.4199870" sodipodi:open="true" sodipodi:rx="111.03625" sodipodi:ry="106.15553" sodipodi:start="3.2074135" sodipodi:type="arc" style="fill: none; stroke: rgb(255, 0, 0); stroke-width: 0.8125; stroke-miterlimit: 4; stroke-opacity: 1;" transform="matrix(-1, 0, 0, 1, 2250.03, 880.249)"/>
  </g>
  <g id="g1774" transform="translate(569.604, -410.269)">
    <path d="M 235.08419,1471.0537 C 235.08419,1471.0537 240.17672,1443.9330 242.78125,1431.1576 C 245.03490,1419.7146 247.31159,1409.8473 255.00000,1402.5326 C 262.68841,1395.2179 274.69696,1391.5098 294.59375,1390.1576 C 333.65637,1387.5029 372.56340,1387.5639 392.01250,1387.5431 C 411.46160,1387.5223 450.36863,1387.4613 489.43125,1390.1160 C 509.32804,1391.4682 521.33659,1395.1763 529.02500,1402.4910 C 536.71341,1409.8057 538.99010,1419.6730 541.24375,1431.1160 C 543.84828,1443.8914 548.68125,1468.9356 548.68125,1468.9356 M 540.50091,1471.8907 C 540.03558,1467.9354 534.19242,1445.0331 531.74375,1433.0223 L 531.74375,1432.9910 C 529.53625,1421.7823 527.53998,1414.4109 522.36875,1409.4910 C 517.19752,1404.5711 507.71840,1401.0597 488.77500,1399.7723 C 450.15723,1397.1478 411.47892,1397.2097 390.52500,1397.2097 C 372.54608,1397.2513 333.86777,1397.1894 295.25000,1399.8139 C 276.30660,1401.1013 266.82748,1404.6127 261.65625,1409.5326 C 256.48502,1414.4525 254.48875,1421.8239 252.28125,1433.0326 L 252.28125,1433.0639 C 249.83258,1445.0747 244.30647,1470.2364 243.84114,1474.1917" id="path1916" sodipodi:nodetypes="cccccccccccccccccccc" style="fill: none; fill-opacity: 1; fill-rule: evenodd; stroke: rgb(255, 0, 0); stroke-width: 0.7; stroke-linecap: butt; stroke-linejoin: miter; stroke-miterlimit: 4; stroke-opacity: 1;"/>
    <path d="M 245.30363,1611.0833 C 245.30363,1611.0833 245.30363,1682.9861 245.30363,1688.2654 C 245.30363,1693.5446 246.05781,1697.3155 240.77856,1697.3155 C 235.49931,1697.3155 208.15863,1696.5614 197.79040,1696.5614 C 192.13160,1696.5598 192.13406,1686.7570 192.13406,1686.7570 L 192.13406,1548.4384" id="path1914" sodipodi:nodetypes="cccccc" style="fill: none; fill-opacity: 0.75; fill-rule: evenodd; stroke: rgb(255, 0, 0); stroke-width: 0.8125; stroke-linecap: butt; stroke-linejoin: miter; stroke-miterlimit: 4; stroke-opacity: 1;"/>
    <path d="M 266.39822,1522.1285 C 266.39822,1539.2704 252.48595,1553.1826 235.34403,1553.1826 C 218.20213,1553.1826 204.28984,1539.2704 204.28984,1522.1285 C 204.28984,1504.9865 218.20213,1491.0743 235.34403,1491.0743 C 252.48595,1491.0743 266.39822,1504.9865 266.39822,1522.1285 z M 259.86419,1522.1283 C 259.86419,1535.6634 248.87919,1546.6484 235.34411,1546.6484 C 221.80903,1546.6484 210.82403,1535.6634 210.82403,1522.1283 C 210.82403,1508.5933 221.80903,1497.6083 235.34411,1497.6083 C 248.87919,1497.6083 259.86419,1508.5933 259.86419,1522.1283 z " id="path1944" style="fill: none; fill-opacity: 1; stroke: rgb(255, 0, 0); stroke-width: 0.848654; stroke-miterlimit: 4; stroke-opacity: 1;"/>
    <path d="M 198.77026,1491.4519 C 192.90544,1488.6486 182.18178,1495.2411 182.96045,1507.0491 C 182.96045,1514.1851 187.24841,1529.9861 191.24457,1544.2581 C 195.24072,1558.5301 203.23303,1575.6375 210.65446,1587.4751" id="path2570" sodipodi:nodetypes="cccc" style="fill: none; fill-opacity: 0.75; fill-rule: evenodd; stroke: rgb(255, 0, 0); stroke-width: 0.8125; stroke-linecap: butt; stroke-linejoin: miter; stroke-miterlimit: 4; stroke-opacity: 1;"/>
    <path d="M 255.46849 1571.9458 A 10.561267 10.561267 0 1 1  234.34596,1571.9458 A 10.561267 10.561267 0 1 1  255.46849 1571.9458 z" id="path2572" sodipodi:cx="244.90723" sodipodi:cy="1571.9458" sodipodi:rx="10.561267" sodipodi:ry="10.561267" sodipodi:type="arc" style="fill: none; fill-opacity: 1; stroke: rgb(255, 0, 0); stroke-width: 0.8125; stroke-miterlimit: 4; stroke-opacity: 1;" transform="translate(0.519113, 2.92355)"/>
    <path d="M 326.94345,1596.6882 C 328.96730,1601.6559 327.49541,1605.7036 335.77479,1605.7036 C 344.05417,1605.7036 369.43529,1605.3356 376.98770,1605.3356 C 382.50728,1605.3356 384.16315,1596.7068 384.16315,1596.7068" id="path2578" sodipodi:nodetypes="cccc" style="fill: none; fill-opacity: 0.75; fill-rule: evenodd; stroke: rgb(255, 0, 0); stroke-width: 0.8125; stroke-linecap: butt; stroke-linejoin: miter; stroke-miterlimit: 4; stroke-opacity: 1;"/>
    <path d="M 245.47432,1611.7661 C 245.47432,1611.7661 245.30363,1682.9861 245.30363,1688.2654 C 245.30363,1693.5446 246.05781,1697.3155 240.77856,1697.3155 C 235.49931,1697.3155 208.15863,1696.5614 197.79040,1696.5614 C 192.13160,1696.5598 192.13406,1686.7570 192.13406,1686.7570 L 192.13406,1547.2436" id="path2596" sodipodi:nodetypes="cccccc" style="fill: none; fill-opacity: 0.75; fill-rule: evenodd; stroke: rgb(255, 0, 0); stroke-width: 0.8125; stroke-linecap: butt; stroke-linejoin: miter; stroke-miterlimit: 4; stroke-opacity: 1;" transform="matrix(-1, 0, 0, 1, 784.36, 5.68434e-14)"/>
    <path d="M 517.96209,1522.1285 C 517.96209,1539.2704 531.87436,1553.1826 549.01628,1553.1826 C 566.15818,1553.1826 580.07047,1539.2704 580.07047,1522.1285 C 580.07047,1504.9865 566.15818,1491.0743 549.01628,1491.0743 C 531.87436,1491.0743 517.96209,1504.9865 517.96209,1522.1285 z M 524.49614,1522.1283 C 524.49614,1535.6634 535.48114,1546.6484 549.01622,1546.6484 C 562.55130,1546.6484 573.53630,1535.6634 573.53630,1522.1283 C 573.53630,1508.5933 562.55130,1497.6083 549.01622,1497.6083 C 535.48114,1497.6083 524.49614,1508.5933 524.49614,1522.1283 z " id="path2597" style="fill: none; fill-opacity: 1; stroke: rgb(255, 0, 0); stroke-width: 0.848654; stroke-miterlimit: 4; stroke-opacity: 1;"/>
    <path d="M 393.95965,1612.7090 C 335.25521,1611.9384 262.56706,1614.6360 251.02831,1613.2088 C 239.86010,1611.8274 227.36645,1604.4430 217.18949,1594.4602 C 194.68996,1573.3646 191.89430,1511.1548 197.57384,1491.1079 C 203.34791,1470.7273 219.10868,1467.8483 227.05220,1467.8483 C 234.99571,1467.8483 248.69533,1475.6659 255.51647,1479.7636 C 263.78386,1484.7300 278.02310,1491.0169 290.60033,1488.3690 C 303.17757,1485.7212 363.01564,1479.4365 393.59591,1479.4365 C 424.17618,1479.4365 481.18273,1485.7212 493.75997,1488.3690 C 506.33720,1491.0169 520.57644,1484.7300 528.84383,1479.7636 C 535.66497,1475.6659 549.36459,1467.8483 557.30810,1467.8483 C 565.25162,1467.8483 581.01239,1470.7273 586.78646,1491.1079 C 592.46600,1511.1548 589.67034,1573.3646 567.17081,1594.4602 C 556.99385,1604.4430 544.50020,1611.8274 533.33199,1613.2088 C 521.79324,1614.6360 456.18387,1611.9384 393.95965,1612.7090 z " id="path2569" sodipodi:nodetypes="ccccccccccccccc" style="fill: none; fill-opacity: 0.75; fill-rule: evenodd; stroke: rgb(255, 0, 0); stroke-width: 0.8125; stroke-linecap: butt; stroke-linejoin: miter; stroke-miterlimit: 4; stroke-opacity: 1;"/>
    <path d="M 197.57543,1491.6226 C 191.71061,1488.8193 182.18178,1495.2411 182.96045,1507.0491 C 182.96045,1514.1851 187.24841,1529.9861 191.24457,1544.2581 C 195.24072,1558.5301 203.91579,1575.6375 211.33722,1587.4751" id="path2600" sodipodi:nodetypes="cccc" style="fill: none; fill-opacity: 0.75; fill-rule: evenodd; stroke: rgb(255, 0, 0); stroke-width: 0.8125; stroke-linecap: butt; stroke-linejoin: miter; stroke-miterlimit: 4; stroke-opacity: 1;" transform="matrix(-1, 0, 0, 1, 784.36, 5.68434e-14)"/>
    <path d="M 323.97400,1577.0119 C 314.26906,1577.0119 300.56795,1572.5814 298.28443,1563.9420 C 295.76068,1554.3937 303.59435,1547.1114 315.69626,1541.0015 C 338.05603,1530.9412 383.31106,1529.5504 393.83187,1529.9846 C 403.88076,1530.0998 446.30427,1530.9412 468.66404,1541.0015 C 480.76595,1547.1114 488.59962,1554.3937 486.07587,1563.9420 C 483.79235,1572.5814 470.09124,1577.0119 460.38630,1577.0119 C 450.68135,1577.0119 333.67895,1577.0119 323.97400,1577.0119 z " id="path2571" sodipodi:nodetypes="cccccccc" style="fill: none; fill-opacity: 0.75; fill-rule: evenodd; stroke: rgb(255, 0, 0); stroke-width: 0.715777; stroke-linecap: butt; stroke-linejoin: miter; stroke-miterlimit: 4; stroke-opacity: 1;"/>
    <path d="M 255.46849 1571.9458 A 10.561267 10.561267 0 1 1  234.34596,1571.9458 A 10.561267 10.561267 0 1 1  255.46849 1571.9458 z" id="path2602" sodipodi:cx="244.90723" sodipodi:cy="1571.9458" sodipodi:rx="10.561267" sodipodi:ry="10.561267" sodipodi:type="arc" style="fill: none; fill-opacity: 1; stroke: rgb(255, 0, 0); stroke-width: 0.8125; stroke-miterlimit: 4; stroke-opacity: 1;" transform="matrix(-1, 0, 0, 1, 783.841, 2.92355)"/>
    <path d="M 251.75000,1596.1643 C 246.24464,1596.1643 239.90853,1595.0435 234.53125,1591.6057 C 229.15397,1588.1679 224.90625,1581.9015 224.90625,1573.4042 C 224.90625,1568.5961 226.97582,1564.0586 230.31250,1559.9597 C 233.64918,1555.8608 238.32355,1552.0267 244.15625,1548.2659 C 255.82165,1540.7442 272.26058,1533.5027 292.53125,1526.3646 C 333.82825,1511.8224 389.01109,1512.9527 393.59591,1512.9527 C 398.18073,1512.9527 450.53205,1511.8224 491.82905,1526.3646 C 512.09972,1533.5027 528.53865,1540.7442 540.20405,1548.2659 C 546.03675,1552.0267 550.71112,1555.8608 554.04780,1559.9597 C 557.38448,1564.0586 559.45405,1568.5961 559.45405,1573.4042 C 559.45405,1581.9015 555.20633,1588.1679 549.82905,1591.6057 C 544.45177,1595.0435 538.11566,1596.1643 532.61030,1596.1643 C 522.73290,1596.1643 261.62740,1596.1643 251.75000,1596.1643 z M 393.87500,1519.8571 C 393.87500,1519.8571 334.10322,1520.0275 294.90625,1533.8303 C 274.92993,1540.8647 258.84422,1548.0327 248.03125,1555.0047 C 242.62477,1558.4907 238.54603,1561.9138 235.96875,1565.0798 C 233.39147,1568.2459 232.34375,1570.9710 232.34375,1573.4042 C 232.34375,1579.3901 234.68958,1582.5438 238.37500,1584.8999 C 242.06042,1587.2561 247.26498,1588.3024 251.75000,1588.3024 C 261.85338,1588.3024 522.50692,1588.3024 532.61030,1588.3024 C 537.09532,1588.3024 542.29988,1587.2561 545.98530,1584.8999 C 549.67072,1582.5438 552.01655,1579.3901 552.01655,1573.4042 C 552.01655,1570.9710 550.96883,1568.2459 548.39155,1565.0798 C 545.81427,1561.9138 541.73553,1558.4907 536.32905,1555.0047 C 525.51608,1548.0327 509.43037,1540.8647 489.45405,1533.8303 C 450.25708,1520.0275 390.48530,1519.8571 390.48530,1519.8571" id="path2573" sodipodi:nodetypes="cccccccccccccccccccccccccccc" style="fill: none; fill-opacity: 1; fill-rule: evenodd; stroke: rgb(255, 0, 0); stroke-width: 0.835363; stroke-linecap: butt; stroke-linejoin: miter; stroke-miterlimit: 4; stroke-opacity: 1;"/>
    <path d="M 254.58251,1480.0956 C 254.58251,1480.0956 328.36310,1461.2589 394.01000,1461.2589 C 459.65690,1461.2589 530.13405,1480.0956 530.13405,1480.0956" id="path2575" sodipodi:nodetypes="ccc" style="fill: none; fill-opacity: 0.75; fill-rule: evenodd; stroke: rgb(255, 0, 0); stroke-width: 0.6875; stroke-linecap: butt; stroke-linejoin: miter; stroke-miterlimit: 4; stroke-opacity: 1;"/>
    <path d="M 351.83978,1462.9004 C 351.83978,1462.9004 357.80813,1455.1559 363.23149,1454.1114 C 368.65484,1453.0669 416.06172,1453.0669 421.48507,1454.1114 C 426.90843,1455.1559 432.87678,1462.9004 432.87678,1462.9004" id="path2576" sodipodi:nodetypes="cccc" style="fill: none; fill-opacity: 0.75; fill-rule: evenodd; stroke: rgb(255, 0, 0); stroke-width: 0.634523; stroke-linecap: butt; stroke-linejoin: miter; stroke-miterlimit: 4; stroke-opacity: 1;"/>
    <path d="M 245.27031,1627.3114 C 245.27031,1627.3114 243.02543,1632.4494 254.89761,1632.1639 C 266.76979,1631.8785 266.60063,1624.1716 274.59294,1624.1716 C 282.58525,1624.1716 282.01437,1628.7386 292.57564,1628.7386 C 303.13691,1628.7386 354.80149,1628.4532 363.93555,1628.4532 C 373.06962,1628.4532 369.38185,1640.4417 381.63281,1640.4417 C 393.88377,1640.4417 390.47653,1640.4417 402.72749,1640.4417 C 414.97845,1640.4417 411.29068,1628.4532 420.42475,1628.4532 C 429.55881,1628.4532 481.22339,1628.7386 491.78466,1628.7386 C 502.34593,1628.7386 501.77505,1624.1716 509.76736,1624.1716 C 517.75967,1624.1716 517.59051,1631.8785 529.46269,1632.1639 C 541.33487,1632.4494 539.08999,1627.3114 539.08999,1627.3114" id="path2577" sodipodi:nodetypes="cccccccccccc" style="fill: none; fill-opacity: 0.75; fill-rule: evenodd; stroke: rgb(255, 0, 0); stroke-width: 0.8125; stroke-linecap: butt; stroke-linejoin: miter; stroke-miterlimit: 4; stroke-opacity: 1;"/>
    <path d="M 459.91685,1596.6882 C 458.91714,1600.8024 459.36489,1605.7036 451.08551,1605.7036 C 442.80613,1605.7036 417.42501,1605.3356 409.87260,1605.3356 C 404.35302,1605.3356 402.69715,1596.7068 402.69715,1596.7068" id="path2607" sodipodi:nodetypes="cccc" style="fill: none; fill-opacity: 0.75; fill-rule: evenodd; stroke: rgb(255, 0, 0); stroke-width: 0.8125; stroke-linecap: butt; stroke-linejoin: miter; stroke-miterlimit: 4; stroke-opacity: 1;"/>
    <rect height="34.200909" id="rect2859" rx="7.4572401" ry="7.1252193" style="fill: none; fill-opacity: 1; stroke: rgb(255, 0, 0); stroke-width: 0.831214; stroke-miterlimit: 4; stroke-opacity: 1;" width="14.914480" x="505.20227" y="1548.8414"/>
    <rect height="34.200909" id="rect2863" rx="7.4572401" ry="7.1252193" style="fill: none; fill-opacity: 1; stroke: rgb(255, 0, 0); stroke-width: 0.831214; stroke-miterlimit: 4; stroke-opacity: 1;" width="14.914480" x="263.51611" y="1548.8414"/>
  </g>
  <rect height="1219.2817" id="rect2923" rx="3.3977060" ry="3.3977060" style="fill: none; fill-opacity: 1; stroke: rgb(255, 0, 0); stroke-width: 0.718386; stroke-miterlimit: 4; stroke-opacity: 1;" width="1219.2816" x="76.459267" y="79.050262"/>
  <g id="g1478" transform="matrix(0, -1, 1, 0, -35.5707, 737.799)">
    </g></svg>